<mxfile host="app.diagrams.net" modified="2024-01-13T23:21:18.198Z" agent="Mozilla/5.0 (Windows NT 10.0; Win64; x64) AppleWebKit/537.36 (KHTML, like Gecko) Chrome/120.0.0.0 Safari/537.36" etag="I_x0AlxJeIe8NC6mfkqa" version="22.1.18" type="device">
  <diagram name="PÃ¡gina-1" id="i6b4A52UnQ86k48AzQtO">
    <mxGraphModel dx="1701" dy="1603" grid="1" gridSize="10" guides="1" tooltips="1" connect="1" arrows="1" fold="1" page="1" pageScale="1" pageWidth="827" pageHeight="1169" math="0" shadow="0">
      <root>
        <mxCell id="0" />
        <mxCell id="1" parent="0" />
        <mxCell id="bPTVYF2F344Qg-RBrNcO-507" style="orthogonalLoop=1;jettySize=auto;html=1;endArrow=ERoneToMany;endFill=0;startArrow=none;startFill=0;exitX=1;exitY=0.5;exitDx=0;exitDy=0;entryX=0;entryY=0.5;entryDx=0;entryDy=0;" edge="1" parent="1" source="bPTVYF2F344Qg-RBrNcO-253" target="bPTVYF2F344Qg-RBrNcO-81">
          <mxGeometry relative="1" as="geometry">
            <mxPoint x="270" y="-360" as="targetPoint" />
            <mxPoint x="230" y="-130" as="sourcePoint" />
          </mxGeometry>
        </mxCell>
        <mxCell id="bPTVYF2F344Qg-RBrNcO-252" value="TRABAJO" style="shape=table;startSize=20;container=1;collapsible=0;childLayout=tableLayout;fontSize=16;fillColor=#bac8d3;strokeColor=#BAC8D3;fontStyle=1;strokeWidth=2;verticalAlign=middle;spacing=2;horizontal=1;spacingTop=0;spacingRight=0;rounded=0;" vertex="1" parent="1">
          <mxGeometry x="-179" y="-450" width="260" height="60" as="geometry" />
        </mxCell>
        <mxCell id="bPTVYF2F344Qg-RBrNcO-253" value="" style="shape=tableRow;horizontal=0;startSize=0;swimlaneHead=0;swimlaneBody=0;top=0;left=0;bottom=0;right=0;collapsible=0;dropTarget=0;points=[[0,0.5],[1,0.5]];portConstraint=eastwest;fontSize=16;fillColor=none;strokeColor=#BAC8D3;strokeWidth=2;rounded=0;" vertex="1" parent="bPTVYF2F344Qg-RBrNcO-252">
          <mxGeometry y="20" width="260" height="20" as="geometry" />
        </mxCell>
        <mxCell id="bPTVYF2F344Qg-RBrNcO-254" value="ID_trabajo" style="shape=partialRectangle;html=1;whiteSpace=wrap;connectable=0;overflow=hidden;top=0;left=0;bottom=0;right=0;pointerEvents=1;fontSize=16;fillColor=none;strokeColor=#BAC8D3;strokeWidth=2;align=left;verticalAlign=bottom;spacingTop=-2;rounded=0;" vertex="1" parent="bPTVYF2F344Qg-RBrNcO-253">
          <mxGeometry width="80" height="20" as="geometry">
            <mxRectangle width="80" height="20" as="alternateBounds" />
          </mxGeometry>
        </mxCell>
        <mxCell id="bPTVYF2F344Qg-RBrNcO-255" value="PK" style="shape=partialRectangle;html=1;whiteSpace=wrap;connectable=0;overflow=hidden;top=0;left=0;bottom=0;right=0;pointerEvents=1;fontSize=16;fillColor=none;strokeColor=#BAC8D3;strokeWidth=2;verticalAlign=bottom;spacingTop=-1;rounded=0;" vertex="1" parent="bPTVYF2F344Qg-RBrNcO-253">
          <mxGeometry x="80" width="30" height="20" as="geometry">
            <mxRectangle width="30" height="20" as="alternateBounds" />
          </mxGeometry>
        </mxCell>
        <mxCell id="bPTVYF2F344Qg-RBrNcO-256" value="int, not null, identity" style="shape=partialRectangle;html=1;whiteSpace=wrap;connectable=0;overflow=hidden;top=0;left=0;bottom=0;right=0;pointerEvents=1;fontSize=16;fillColor=none;strokeColor=#BAC8D3;strokeWidth=2;align=left;spacingTop=-2;rounded=0;" vertex="1" parent="bPTVYF2F344Qg-RBrNcO-253">
          <mxGeometry x="110" width="150" height="20" as="geometry">
            <mxRectangle width="150" height="20" as="alternateBounds" />
          </mxGeometry>
        </mxCell>
        <mxCell id="bPTVYF2F344Qg-RBrNcO-257" value="" style="shape=tableRow;horizontal=0;startSize=0;swimlaneHead=0;swimlaneBody=0;top=0;left=0;bottom=0;right=0;collapsible=0;dropTarget=0;points=[[0,0.5],[1,0.5]];portConstraint=eastwest;fontSize=16;fillColor=none;strokeColor=#BAC8D3;strokeWidth=2;rounded=0;" vertex="1" parent="bPTVYF2F344Qg-RBrNcO-252">
          <mxGeometry y="40" width="260" height="20" as="geometry" />
        </mxCell>
        <mxCell id="bPTVYF2F344Qg-RBrNcO-258" value="Trabajo" style="shape=partialRectangle;html=1;whiteSpace=wrap;connectable=0;overflow=hidden;top=0;left=0;bottom=0;right=0;pointerEvents=1;fontSize=16;fillColor=none;strokeColor=#BAC8D3;strokeWidth=2;align=left;verticalAlign=bottom;spacingTop=-2;rounded=0;" vertex="1" parent="bPTVYF2F344Qg-RBrNcO-257">
          <mxGeometry width="80" height="20" as="geometry">
            <mxRectangle width="80" height="20" as="alternateBounds" />
          </mxGeometry>
        </mxCell>
        <mxCell id="bPTVYF2F344Qg-RBrNcO-259" value="" style="shape=partialRectangle;html=1;whiteSpace=wrap;connectable=0;overflow=hidden;top=0;left=0;bottom=0;right=0;pointerEvents=1;fontSize=16;fillColor=none;strokeColor=#BAC8D3;strokeWidth=2;rounded=0;" vertex="1" parent="bPTVYF2F344Qg-RBrNcO-257">
          <mxGeometry x="80" width="30" height="20" as="geometry">
            <mxRectangle width="30" height="20" as="alternateBounds" />
          </mxGeometry>
        </mxCell>
        <mxCell id="bPTVYF2F344Qg-RBrNcO-260" value="varchar(250), null" style="shape=partialRectangle;html=1;whiteSpace=wrap;connectable=0;overflow=hidden;top=0;left=0;bottom=0;right=0;pointerEvents=1;fontSize=16;fillColor=none;strokeColor=#BAC8D3;strokeWidth=2;align=left;verticalAlign=bottom;spacingTop=-2;rounded=0;" vertex="1" parent="bPTVYF2F344Qg-RBrNcO-257">
          <mxGeometry x="110" width="150" height="20" as="geometry">
            <mxRectangle width="150" height="20" as="alternateBounds" />
          </mxGeometry>
        </mxCell>
        <mxCell id="bPTVYF2F344Qg-RBrNcO-289" value="MODALIDAD" style="shape=table;startSize=20;container=1;collapsible=0;childLayout=tableLayout;fontSize=16;fillColor=#bac8d3;strokeColor=#BAC8D3;fontStyle=1;strokeWidth=2;verticalAlign=middle;spacing=2;horizontal=1;spacingTop=0;spacingRight=0;rounded=0;" vertex="1" parent="1">
          <mxGeometry x="-180" y="-270" width="290" height="60" as="geometry" />
        </mxCell>
        <mxCell id="bPTVYF2F344Qg-RBrNcO-290" value="" style="shape=tableRow;horizontal=0;startSize=0;swimlaneHead=0;swimlaneBody=0;top=0;left=0;bottom=0;right=0;collapsible=0;dropTarget=0;points=[[0,0.5],[1,0.5]];portConstraint=eastwest;fontSize=16;fillColor=none;strokeColor=#BAC8D3;strokeWidth=2;rounded=0;" vertex="1" parent="bPTVYF2F344Qg-RBrNcO-289">
          <mxGeometry y="20" width="290" height="20" as="geometry" />
        </mxCell>
        <mxCell id="bPTVYF2F344Qg-RBrNcO-291" value="ID_modalidad" style="shape=partialRectangle;html=1;whiteSpace=wrap;connectable=0;overflow=hidden;top=0;left=0;bottom=0;right=0;pointerEvents=1;fontSize=16;fillColor=none;strokeColor=#BAC8D3;strokeWidth=2;align=left;verticalAlign=bottom;spacingTop=-2;rounded=0;" vertex="1" parent="bPTVYF2F344Qg-RBrNcO-290">
          <mxGeometry width="109" height="20" as="geometry">
            <mxRectangle width="109" height="20" as="alternateBounds" />
          </mxGeometry>
        </mxCell>
        <mxCell id="bPTVYF2F344Qg-RBrNcO-292" value="PK" style="shape=partialRectangle;html=1;whiteSpace=wrap;connectable=0;overflow=hidden;top=0;left=0;bottom=0;right=0;pointerEvents=1;fontSize=16;fillColor=none;strokeColor=#BAC8D3;strokeWidth=2;verticalAlign=bottom;spacingTop=-1;rounded=0;" vertex="1" parent="bPTVYF2F344Qg-RBrNcO-290">
          <mxGeometry x="109" width="31" height="20" as="geometry">
            <mxRectangle width="31" height="20" as="alternateBounds" />
          </mxGeometry>
        </mxCell>
        <mxCell id="bPTVYF2F344Qg-RBrNcO-293" value="int, not null, identity" style="shape=partialRectangle;html=1;whiteSpace=wrap;connectable=0;overflow=hidden;top=0;left=0;bottom=0;right=0;pointerEvents=1;fontSize=16;fillColor=none;strokeColor=#BAC8D3;strokeWidth=2;align=left;spacingTop=-2;rounded=0;" vertex="1" parent="bPTVYF2F344Qg-RBrNcO-290">
          <mxGeometry x="140" width="150" height="20" as="geometry">
            <mxRectangle width="150" height="20" as="alternateBounds" />
          </mxGeometry>
        </mxCell>
        <mxCell id="bPTVYF2F344Qg-RBrNcO-294" value="" style="shape=tableRow;horizontal=0;startSize=0;swimlaneHead=0;swimlaneBody=0;top=0;left=0;bottom=0;right=0;collapsible=0;dropTarget=0;points=[[0,0.5],[1,0.5]];portConstraint=eastwest;fontSize=16;fillColor=none;strokeColor=#BAC8D3;strokeWidth=2;rounded=0;" vertex="1" parent="bPTVYF2F344Qg-RBrNcO-289">
          <mxGeometry y="40" width="290" height="20" as="geometry" />
        </mxCell>
        <mxCell id="bPTVYF2F344Qg-RBrNcO-295" value="Modalidad" style="shape=partialRectangle;html=1;whiteSpace=wrap;connectable=0;overflow=hidden;top=0;left=0;bottom=0;right=0;pointerEvents=1;fontSize=16;fillColor=none;strokeColor=#BAC8D3;strokeWidth=2;align=left;verticalAlign=bottom;spacingTop=-2;rounded=0;" vertex="1" parent="bPTVYF2F344Qg-RBrNcO-294">
          <mxGeometry width="109" height="20" as="geometry">
            <mxRectangle width="109" height="20" as="alternateBounds" />
          </mxGeometry>
        </mxCell>
        <mxCell id="bPTVYF2F344Qg-RBrNcO-296" value="" style="shape=partialRectangle;html=1;whiteSpace=wrap;connectable=0;overflow=hidden;top=0;left=0;bottom=0;right=0;pointerEvents=1;fontSize=16;fillColor=none;strokeColor=#BAC8D3;strokeWidth=2;rounded=0;" vertex="1" parent="bPTVYF2F344Qg-RBrNcO-294">
          <mxGeometry x="109" width="31" height="20" as="geometry">
            <mxRectangle width="31" height="20" as="alternateBounds" />
          </mxGeometry>
        </mxCell>
        <mxCell id="bPTVYF2F344Qg-RBrNcO-297" value="nvarchar(100), null" style="shape=partialRectangle;html=1;whiteSpace=wrap;connectable=0;overflow=hidden;top=0;left=0;bottom=0;right=0;pointerEvents=1;fontSize=16;fillColor=none;strokeColor=#BAC8D3;strokeWidth=2;align=left;verticalAlign=bottom;spacingTop=-2;rounded=0;" vertex="1" parent="bPTVYF2F344Qg-RBrNcO-294">
          <mxGeometry x="140" width="150" height="20" as="geometry">
            <mxRectangle width="150" height="20" as="alternateBounds" />
          </mxGeometry>
        </mxCell>
        <mxCell id="bPTVYF2F344Qg-RBrNcO-298" value="CONTRATO" style="shape=table;startSize=20;container=1;collapsible=0;childLayout=tableLayout;fontSize=16;fillColor=#bac8d3;strokeColor=#BAC8D3;fontStyle=1;strokeWidth=2;verticalAlign=middle;spacing=2;horizontal=1;spacingTop=0;spacingRight=0;rounded=0;" vertex="1" parent="1">
          <mxGeometry x="-179" y="-360" width="270" height="60" as="geometry" />
        </mxCell>
        <mxCell id="bPTVYF2F344Qg-RBrNcO-299" value="" style="shape=tableRow;horizontal=0;startSize=0;swimlaneHead=0;swimlaneBody=0;top=0;left=0;bottom=0;right=0;collapsible=0;dropTarget=0;points=[[0,0.5],[1,0.5]];portConstraint=eastwest;fontSize=16;fillColor=none;strokeColor=#BAC8D3;strokeWidth=2;rounded=0;" vertex="1" parent="bPTVYF2F344Qg-RBrNcO-298">
          <mxGeometry y="20" width="270" height="20" as="geometry" />
        </mxCell>
        <mxCell id="bPTVYF2F344Qg-RBrNcO-300" value="ID_contrato" style="shape=partialRectangle;html=1;whiteSpace=wrap;connectable=0;overflow=hidden;top=0;left=0;bottom=0;right=0;pointerEvents=1;fontSize=16;fillColor=none;strokeColor=#BAC8D3;strokeWidth=2;align=left;verticalAlign=bottom;spacingTop=-2;rounded=0;" vertex="1" parent="bPTVYF2F344Qg-RBrNcO-299">
          <mxGeometry width="93" height="20" as="geometry">
            <mxRectangle width="93" height="20" as="alternateBounds" />
          </mxGeometry>
        </mxCell>
        <mxCell id="bPTVYF2F344Qg-RBrNcO-301" value="PK" style="shape=partialRectangle;html=1;whiteSpace=wrap;connectable=0;overflow=hidden;top=0;left=0;bottom=0;right=0;pointerEvents=1;fontSize=16;fillColor=none;strokeColor=#BAC8D3;strokeWidth=2;verticalAlign=bottom;spacingTop=-1;rounded=0;" vertex="1" parent="bPTVYF2F344Qg-RBrNcO-299">
          <mxGeometry x="93" width="32" height="20" as="geometry">
            <mxRectangle width="32" height="20" as="alternateBounds" />
          </mxGeometry>
        </mxCell>
        <mxCell id="bPTVYF2F344Qg-RBrNcO-302" value="int, not null, identity" style="shape=partialRectangle;html=1;whiteSpace=wrap;connectable=0;overflow=hidden;top=0;left=0;bottom=0;right=0;pointerEvents=1;fontSize=16;fillColor=none;strokeColor=#BAC8D3;strokeWidth=2;align=left;spacingTop=-2;rounded=0;" vertex="1" parent="bPTVYF2F344Qg-RBrNcO-299">
          <mxGeometry x="125" width="145" height="20" as="geometry">
            <mxRectangle width="145" height="20" as="alternateBounds" />
          </mxGeometry>
        </mxCell>
        <mxCell id="bPTVYF2F344Qg-RBrNcO-303" value="" style="shape=tableRow;horizontal=0;startSize=0;swimlaneHead=0;swimlaneBody=0;top=0;left=0;bottom=0;right=0;collapsible=0;dropTarget=0;points=[[0,0.5],[1,0.5]];portConstraint=eastwest;fontSize=16;fillColor=none;strokeColor=#BAC8D3;strokeWidth=2;rounded=0;" vertex="1" parent="bPTVYF2F344Qg-RBrNcO-298">
          <mxGeometry y="40" width="270" height="20" as="geometry" />
        </mxCell>
        <mxCell id="bPTVYF2F344Qg-RBrNcO-304" value="Contrato" style="shape=partialRectangle;html=1;whiteSpace=wrap;connectable=0;overflow=hidden;top=0;left=0;bottom=0;right=0;pointerEvents=1;fontSize=16;fillColor=none;strokeColor=#BAC8D3;strokeWidth=2;align=left;verticalAlign=bottom;spacingTop=-2;rounded=0;" vertex="1" parent="bPTVYF2F344Qg-RBrNcO-303">
          <mxGeometry width="93" height="20" as="geometry">
            <mxRectangle width="93" height="20" as="alternateBounds" />
          </mxGeometry>
        </mxCell>
        <mxCell id="bPTVYF2F344Qg-RBrNcO-305" value="" style="shape=partialRectangle;html=1;whiteSpace=wrap;connectable=0;overflow=hidden;top=0;left=0;bottom=0;right=0;pointerEvents=1;fontSize=16;fillColor=none;strokeColor=#BAC8D3;strokeWidth=2;rounded=0;" vertex="1" parent="bPTVYF2F344Qg-RBrNcO-303">
          <mxGeometry x="93" width="32" height="20" as="geometry">
            <mxRectangle width="32" height="20" as="alternateBounds" />
          </mxGeometry>
        </mxCell>
        <mxCell id="bPTVYF2F344Qg-RBrNcO-306" value="varchar(100), null" style="shape=partialRectangle;html=1;whiteSpace=wrap;connectable=0;overflow=hidden;top=0;left=0;bottom=0;right=0;pointerEvents=1;fontSize=16;fillColor=none;strokeColor=#BAC8D3;strokeWidth=2;align=left;verticalAlign=bottom;spacingTop=-2;rounded=0;" vertex="1" parent="bPTVYF2F344Qg-RBrNcO-303">
          <mxGeometry x="125" width="145" height="20" as="geometry">
            <mxRectangle width="145" height="20" as="alternateBounds" />
          </mxGeometry>
        </mxCell>
        <mxCell id="bPTVYF2F344Qg-RBrNcO-307" value="SUELDOS" style="shape=table;startSize=20;container=1;collapsible=0;childLayout=tableLayout;fontSize=16;fillColor=#bac8d3;strokeColor=#BAC8D3;fontStyle=1;strokeWidth=2;verticalAlign=middle;spacing=2;horizontal=1;spacingTop=0;spacingRight=0;rounded=0;" vertex="1" parent="1">
          <mxGeometry x="-179" y="-730" width="399" height="140" as="geometry" />
        </mxCell>
        <mxCell id="bPTVYF2F344Qg-RBrNcO-308" value="" style="shape=tableRow;horizontal=0;startSize=0;swimlaneHead=0;swimlaneBody=0;top=0;left=0;bottom=0;right=0;collapsible=0;dropTarget=0;points=[[0,0.5],[1,0.5]];portConstraint=eastwest;fontSize=16;fillColor=none;strokeColor=#BAC8D3;strokeWidth=2;rounded=0;" vertex="1" parent="bPTVYF2F344Qg-RBrNcO-307">
          <mxGeometry y="20" width="399" height="20" as="geometry" />
        </mxCell>
        <mxCell id="bPTVYF2F344Qg-RBrNcO-309" value="ID_empleado" style="shape=partialRectangle;html=1;whiteSpace=wrap;connectable=0;overflow=hidden;top=0;left=0;bottom=0;right=0;pointerEvents=1;fontSize=16;fillColor=none;strokeColor=#BAC8D3;strokeWidth=2;align=left;verticalAlign=bottom;spacingTop=-2;rounded=0;" vertex="1" parent="bPTVYF2F344Qg-RBrNcO-308">
          <mxGeometry width="232" height="20" as="geometry">
            <mxRectangle width="232" height="20" as="alternateBounds" />
          </mxGeometry>
        </mxCell>
        <mxCell id="bPTVYF2F344Qg-RBrNcO-310" value="FK" style="shape=partialRectangle;html=1;whiteSpace=wrap;connectable=0;overflow=hidden;top=0;left=0;bottom=0;right=0;pointerEvents=1;fontSize=16;fillColor=none;strokeColor=#BAC8D3;strokeWidth=2;verticalAlign=bottom;spacingTop=-1;rounded=0;" vertex="1" parent="bPTVYF2F344Qg-RBrNcO-308">
          <mxGeometry x="232" width="34" height="20" as="geometry">
            <mxRectangle width="34" height="20" as="alternateBounds" />
          </mxGeometry>
        </mxCell>
        <mxCell id="bPTVYF2F344Qg-RBrNcO-311" value="int, null" style="shape=partialRectangle;html=1;whiteSpace=wrap;connectable=0;overflow=hidden;top=0;left=0;bottom=0;right=0;pointerEvents=1;fontSize=16;fillColor=none;strokeColor=#BAC8D3;strokeWidth=2;align=left;spacingTop=-2;rounded=0;" vertex="1" parent="bPTVYF2F344Qg-RBrNcO-308">
          <mxGeometry x="266" width="133" height="20" as="geometry">
            <mxRectangle width="133" height="20" as="alternateBounds" />
          </mxGeometry>
        </mxCell>
        <mxCell id="bPTVYF2F344Qg-RBrNcO-312" value="" style="shape=tableRow;horizontal=0;startSize=0;swimlaneHead=0;swimlaneBody=0;top=0;left=0;bottom=0;right=0;collapsible=0;dropTarget=0;points=[[0,0.5],[1,0.5]];portConstraint=eastwest;fontSize=16;fillColor=none;strokeColor=#BAC8D3;strokeWidth=2;rounded=0;" vertex="1" parent="bPTVYF2F344Qg-RBrNcO-307">
          <mxGeometry y="40" width="399" height="20" as="geometry" />
        </mxCell>
        <mxCell id="bPTVYF2F344Qg-RBrNcO-313" value="DolarizaciÃ³n" style="shape=partialRectangle;html=1;whiteSpace=wrap;connectable=0;overflow=hidden;top=0;left=0;bottom=0;right=0;pointerEvents=1;fontSize=16;fillColor=none;strokeColor=#BAC8D3;strokeWidth=2;align=left;verticalAlign=bottom;spacingTop=-2;rounded=0;" vertex="1" parent="bPTVYF2F344Qg-RBrNcO-312">
          <mxGeometry width="232" height="20" as="geometry">
            <mxRectangle width="232" height="20" as="alternateBounds" />
          </mxGeometry>
        </mxCell>
        <mxCell id="bPTVYF2F344Qg-RBrNcO-314" value="" style="shape=partialRectangle;html=1;whiteSpace=wrap;connectable=0;overflow=hidden;top=0;left=0;bottom=0;right=0;pointerEvents=1;fontSize=16;fillColor=none;strokeColor=#BAC8D3;strokeWidth=2;rounded=0;" vertex="1" parent="bPTVYF2F344Qg-RBrNcO-312">
          <mxGeometry x="232" width="34" height="20" as="geometry">
            <mxRectangle width="34" height="20" as="alternateBounds" />
          </mxGeometry>
        </mxCell>
        <mxCell id="bPTVYF2F344Qg-RBrNcO-315" value="varchar(250), null" style="shape=partialRectangle;html=1;whiteSpace=wrap;connectable=0;overflow=hidden;top=0;left=0;bottom=0;right=0;pointerEvents=1;fontSize=16;fillColor=none;strokeColor=#BAC8D3;strokeWidth=2;align=left;verticalAlign=bottom;spacingTop=-2;rounded=0;" vertex="1" parent="bPTVYF2F344Qg-RBrNcO-312">
          <mxGeometry x="266" width="133" height="20" as="geometry">
            <mxRectangle width="133" height="20" as="alternateBounds" />
          </mxGeometry>
        </mxCell>
        <mxCell id="bPTVYF2F344Qg-RBrNcO-316" value="" style="shape=tableRow;horizontal=0;startSize=0;swimlaneHead=0;swimlaneBody=0;top=0;left=0;bottom=0;right=0;collapsible=0;dropTarget=0;points=[[0,0.5],[1,0.5]];portConstraint=eastwest;fontSize=16;fillColor=none;strokeColor=#BAC8D3;strokeWidth=2;rounded=0;" vertex="1" parent="bPTVYF2F344Qg-RBrNcO-307">
          <mxGeometry y="60" width="399" height="20" as="geometry" />
        </mxCell>
        <mxCell id="bPTVYF2F344Qg-RBrNcO-317" value="Ãltimo_salario_neto_en_pesos" style="shape=partialRectangle;html=1;whiteSpace=wrap;connectable=0;overflow=hidden;top=0;left=0;bottom=0;right=0;pointerEvents=1;fontSize=16;fillColor=none;strokeColor=#BAC8D3;strokeWidth=2;align=left;verticalAlign=bottom;spacingTop=-2;rounded=0;" vertex="1" parent="bPTVYF2F344Qg-RBrNcO-316">
          <mxGeometry width="232" height="20" as="geometry">
            <mxRectangle width="232" height="20" as="alternateBounds" />
          </mxGeometry>
        </mxCell>
        <mxCell id="bPTVYF2F344Qg-RBrNcO-318" value="" style="shape=partialRectangle;html=1;whiteSpace=wrap;connectable=0;overflow=hidden;top=0;left=0;bottom=0;right=0;pointerEvents=1;fontSize=16;fillColor=none;strokeColor=#BAC8D3;strokeWidth=2;rounded=0;" vertex="1" parent="bPTVYF2F344Qg-RBrNcO-316">
          <mxGeometry x="232" width="34" height="20" as="geometry">
            <mxRectangle width="34" height="20" as="alternateBounds" />
          </mxGeometry>
        </mxCell>
        <mxCell id="bPTVYF2F344Qg-RBrNcO-319" value="float, null" style="shape=partialRectangle;html=1;whiteSpace=wrap;connectable=0;overflow=hidden;top=0;left=0;bottom=0;right=0;pointerEvents=1;fontSize=16;fillColor=none;strokeColor=#BAC8D3;strokeWidth=2;align=left;verticalAlign=bottom;spacingTop=-2;rounded=0;" vertex="1" parent="bPTVYF2F344Qg-RBrNcO-316">
          <mxGeometry x="266" width="133" height="20" as="geometry">
            <mxRectangle width="133" height="20" as="alternateBounds" />
          </mxGeometry>
        </mxCell>
        <mxCell id="bPTVYF2F344Qg-RBrNcO-320" style="shape=tableRow;horizontal=0;startSize=0;swimlaneHead=0;swimlaneBody=0;top=0;left=0;bottom=0;right=0;collapsible=0;dropTarget=0;points=[[0,0.5],[1,0.5]];portConstraint=eastwest;fontSize=16;fillColor=none;strokeColor=#BAC8D3;strokeWidth=2;rounded=0;" vertex="1" parent="bPTVYF2F344Qg-RBrNcO-307">
          <mxGeometry y="80" width="399" height="20" as="geometry" />
        </mxCell>
        <mxCell id="bPTVYF2F344Qg-RBrNcO-321" value="Actualizaciones_salariales" style="shape=partialRectangle;html=1;whiteSpace=wrap;connectable=0;overflow=hidden;top=0;left=0;bottom=0;right=0;pointerEvents=1;fontSize=16;fillColor=none;strokeColor=#BAC8D3;strokeWidth=2;align=left;verticalAlign=bottom;spacingTop=-2;rounded=0;" vertex="1" parent="bPTVYF2F344Qg-RBrNcO-320">
          <mxGeometry width="232" height="20" as="geometry">
            <mxRectangle width="232" height="20" as="alternateBounds" />
          </mxGeometry>
        </mxCell>
        <mxCell id="bPTVYF2F344Qg-RBrNcO-322" style="shape=partialRectangle;html=1;whiteSpace=wrap;connectable=0;overflow=hidden;top=0;left=0;bottom=0;right=0;pointerEvents=1;fontSize=16;fillColor=none;strokeColor=#BAC8D3;strokeWidth=2;rounded=0;" vertex="1" parent="bPTVYF2F344Qg-RBrNcO-320">
          <mxGeometry x="232" width="34" height="20" as="geometry">
            <mxRectangle width="34" height="20" as="alternateBounds" />
          </mxGeometry>
        </mxCell>
        <mxCell id="bPTVYF2F344Qg-RBrNcO-323" value="varchar(25), null" style="shape=partialRectangle;html=1;whiteSpace=wrap;connectable=0;overflow=hidden;top=0;left=0;bottom=0;right=0;pointerEvents=1;fontSize=16;fillColor=none;strokeColor=#BAC8D3;strokeWidth=2;align=left;verticalAlign=bottom;spacingTop=-2;rounded=0;" vertex="1" parent="bPTVYF2F344Qg-RBrNcO-320">
          <mxGeometry x="266" width="133" height="20" as="geometry">
            <mxRectangle width="133" height="20" as="alternateBounds" />
          </mxGeometry>
        </mxCell>
        <mxCell id="bPTVYF2F344Qg-RBrNcO-324" style="shape=tableRow;horizontal=0;startSize=0;swimlaneHead=0;swimlaneBody=0;top=0;left=0;bottom=0;right=0;collapsible=0;dropTarget=0;points=[[0,0.5],[1,0.5]];portConstraint=eastwest;fontSize=16;fillColor=none;strokeColor=#BAC8D3;strokeWidth=2;rounded=0;" vertex="1" parent="bPTVYF2F344Qg-RBrNcO-307">
          <mxGeometry y="100" width="399" height="20" as="geometry" />
        </mxCell>
        <mxCell id="bPTVYF2F344Qg-RBrNcO-325" value="Fecha_Ãºltimo_ajuste" style="shape=partialRectangle;html=1;whiteSpace=wrap;connectable=0;overflow=hidden;top=0;left=0;bottom=0;right=0;pointerEvents=1;fontSize=16;fillColor=none;strokeColor=#BAC8D3;strokeWidth=2;align=left;verticalAlign=bottom;spacingTop=-2;rounded=0;" vertex="1" parent="bPTVYF2F344Qg-RBrNcO-324">
          <mxGeometry width="232" height="20" as="geometry">
            <mxRectangle width="232" height="20" as="alternateBounds" />
          </mxGeometry>
        </mxCell>
        <mxCell id="bPTVYF2F344Qg-RBrNcO-326" style="shape=partialRectangle;html=1;whiteSpace=wrap;connectable=0;overflow=hidden;top=0;left=0;bottom=0;right=0;pointerEvents=1;fontSize=16;fillColor=none;strokeColor=#BAC8D3;strokeWidth=2;rounded=0;" vertex="1" parent="bPTVYF2F344Qg-RBrNcO-324">
          <mxGeometry x="232" width="34" height="20" as="geometry">
            <mxRectangle width="34" height="20" as="alternateBounds" />
          </mxGeometry>
        </mxCell>
        <mxCell id="bPTVYF2F344Qg-RBrNcO-327" value="date, null" style="shape=partialRectangle;html=1;whiteSpace=wrap;connectable=0;overflow=hidden;top=0;left=0;bottom=0;right=0;pointerEvents=1;fontSize=16;fillColor=none;strokeColor=#BAC8D3;strokeWidth=2;align=left;verticalAlign=bottom;spacingTop=-2;rounded=0;" vertex="1" parent="bPTVYF2F344Qg-RBrNcO-324">
          <mxGeometry x="266" width="133" height="20" as="geometry">
            <mxRectangle width="133" height="20" as="alternateBounds" />
          </mxGeometry>
        </mxCell>
        <mxCell id="bPTVYF2F344Qg-RBrNcO-328" style="shape=tableRow;horizontal=0;startSize=0;swimlaneHead=0;swimlaneBody=0;top=0;left=0;bottom=0;right=0;collapsible=0;dropTarget=0;points=[[0,0.5],[1,0.5]];portConstraint=eastwest;fontSize=16;fillColor=none;strokeColor=#BAC8D3;strokeWidth=2;align=left;rounded=0;" vertex="1" parent="bPTVYF2F344Qg-RBrNcO-307">
          <mxGeometry y="120" width="399" height="20" as="geometry" />
        </mxCell>
        <mxCell id="bPTVYF2F344Qg-RBrNcO-329" value="Ajuste_total_acumulado" style="shape=partialRectangle;html=1;whiteSpace=wrap;connectable=0;overflow=hidden;top=0;left=0;bottom=0;right=0;pointerEvents=1;fontSize=16;fillColor=none;strokeColor=#BAC8D3;strokeWidth=2;align=left;verticalAlign=bottom;spacingTop=-2;rounded=0;" vertex="1" parent="bPTVYF2F344Qg-RBrNcO-328">
          <mxGeometry width="232" height="20" as="geometry">
            <mxRectangle width="232" height="20" as="alternateBounds" />
          </mxGeometry>
        </mxCell>
        <mxCell id="bPTVYF2F344Qg-RBrNcO-330" style="shape=partialRectangle;html=1;whiteSpace=wrap;connectable=0;overflow=hidden;top=0;left=0;bottom=0;right=0;pointerEvents=1;fontSize=16;fillColor=none;strokeColor=#BAC8D3;strokeWidth=2;rounded=0;" vertex="1" parent="bPTVYF2F344Qg-RBrNcO-328">
          <mxGeometry x="232" width="34" height="20" as="geometry">
            <mxRectangle width="34" height="20" as="alternateBounds" />
          </mxGeometry>
        </mxCell>
        <mxCell id="bPTVYF2F344Qg-RBrNcO-331" value="float, null" style="shape=partialRectangle;html=1;whiteSpace=wrap;connectable=0;overflow=hidden;top=0;left=0;bottom=0;right=0;pointerEvents=1;fontSize=16;fillColor=none;strokeColor=#BAC8D3;strokeWidth=2;align=left;verticalAlign=bottom;spacingTop=-2;rounded=0;" vertex="1" parent="bPTVYF2F344Qg-RBrNcO-328">
          <mxGeometry x="266" width="133" height="20" as="geometry">
            <mxRectangle width="133" height="20" as="alternateBounds" />
          </mxGeometry>
        </mxCell>
        <mxCell id="bPTVYF2F344Qg-RBrNcO-344" value="EXPERIENCIAS" style="shape=table;startSize=20;container=1;collapsible=0;childLayout=tableLayout;fontSize=16;fillColor=#bac8d3;strokeColor=#BAC8D3;fontStyle=1;strokeWidth=2;verticalAlign=middle;spacing=2;horizontal=1;spacingTop=0;spacingRight=0;rounded=0;" vertex="1" parent="1">
          <mxGeometry x="-179" y="-560" width="289" height="80" as="geometry" />
        </mxCell>
        <mxCell id="bPTVYF2F344Qg-RBrNcO-345" value="" style="shape=tableRow;horizontal=0;startSize=0;swimlaneHead=0;swimlaneBody=0;top=0;left=0;bottom=0;right=0;collapsible=0;dropTarget=0;points=[[0,0.5],[1,0.5]];portConstraint=eastwest;fontSize=16;fillColor=none;strokeColor=#BAC8D3;strokeWidth=2;rounded=0;" vertex="1" parent="bPTVYF2F344Qg-RBrNcO-344">
          <mxGeometry y="20" width="289" height="20" as="geometry" />
        </mxCell>
        <mxCell id="bPTVYF2F344Qg-RBrNcO-346" value="ID_empleado" style="shape=partialRectangle;html=1;whiteSpace=wrap;connectable=0;overflow=hidden;top=0;left=0;bottom=0;right=0;pointerEvents=1;fontSize=16;fillColor=none;strokeColor=#BAC8D3;strokeWidth=2;align=left;verticalAlign=bottom;spacingTop=-2;rounded=0;" vertex="1" parent="bPTVYF2F344Qg-RBrNcO-345">
          <mxGeometry width="183" height="20" as="geometry">
            <mxRectangle width="183" height="20" as="alternateBounds" />
          </mxGeometry>
        </mxCell>
        <mxCell id="bPTVYF2F344Qg-RBrNcO-347" value="FK" style="shape=partialRectangle;html=1;whiteSpace=wrap;connectable=0;overflow=hidden;top=0;left=0;bottom=0;right=0;pointerEvents=1;fontSize=16;fillColor=none;strokeColor=#BAC8D3;strokeWidth=2;verticalAlign=bottom;spacingTop=-1;rounded=0;" vertex="1" parent="bPTVYF2F344Qg-RBrNcO-345">
          <mxGeometry x="183" width="36" height="20" as="geometry">
            <mxRectangle width="36" height="20" as="alternateBounds" />
          </mxGeometry>
        </mxCell>
        <mxCell id="bPTVYF2F344Qg-RBrNcO-348" value="int, null" style="shape=partialRectangle;html=1;whiteSpace=wrap;connectable=0;overflow=hidden;top=0;left=0;bottom=0;right=0;pointerEvents=1;fontSize=16;fillColor=none;strokeColor=#BAC8D3;strokeWidth=2;align=left;spacingTop=-2;rounded=0;" vertex="1" parent="bPTVYF2F344Qg-RBrNcO-345">
          <mxGeometry x="219" width="70" height="20" as="geometry">
            <mxRectangle width="70" height="20" as="alternateBounds" />
          </mxGeometry>
        </mxCell>
        <mxCell id="bPTVYF2F344Qg-RBrNcO-349" value="" style="shape=tableRow;horizontal=0;startSize=0;swimlaneHead=0;swimlaneBody=0;top=0;left=0;bottom=0;right=0;collapsible=0;dropTarget=0;points=[[0,0.5],[1,0.5]];portConstraint=eastwest;fontSize=16;fillColor=none;strokeColor=#BAC8D3;strokeWidth=2;rounded=0;" vertex="1" parent="bPTVYF2F344Qg-RBrNcO-344">
          <mxGeometry y="40" width="289" height="20" as="geometry" />
        </mxCell>
        <mxCell id="bPTVYF2F344Qg-RBrNcO-350" value="AÃ±os_de_experiencia" style="shape=partialRectangle;html=1;whiteSpace=wrap;connectable=0;overflow=hidden;top=0;left=0;bottom=0;right=0;pointerEvents=1;fontSize=16;fillColor=none;strokeColor=#BAC8D3;strokeWidth=2;align=left;verticalAlign=bottom;spacingTop=-2;rounded=0;" vertex="1" parent="bPTVYF2F344Qg-RBrNcO-349">
          <mxGeometry width="183" height="20" as="geometry">
            <mxRectangle width="183" height="20" as="alternateBounds" />
          </mxGeometry>
        </mxCell>
        <mxCell id="bPTVYF2F344Qg-RBrNcO-351" value="" style="shape=partialRectangle;html=1;whiteSpace=wrap;connectable=0;overflow=hidden;top=0;left=0;bottom=0;right=0;pointerEvents=1;fontSize=16;fillColor=none;strokeColor=#BAC8D3;strokeWidth=2;rounded=0;" vertex="1" parent="bPTVYF2F344Qg-RBrNcO-349">
          <mxGeometry x="183" width="36" height="20" as="geometry">
            <mxRectangle width="36" height="20" as="alternateBounds" />
          </mxGeometry>
        </mxCell>
        <mxCell id="bPTVYF2F344Qg-RBrNcO-352" value="int, null" style="shape=partialRectangle;html=1;whiteSpace=wrap;connectable=0;overflow=hidden;top=0;left=0;bottom=0;right=0;pointerEvents=1;fontSize=16;fillColor=none;strokeColor=#BAC8D3;strokeWidth=2;align=left;verticalAlign=bottom;spacingTop=-2;rounded=0;" vertex="1" parent="bPTVYF2F344Qg-RBrNcO-349">
          <mxGeometry x="219" width="70" height="20" as="geometry">
            <mxRectangle width="70" height="20" as="alternateBounds" />
          </mxGeometry>
        </mxCell>
        <mxCell id="bPTVYF2F344Qg-RBrNcO-353" value="" style="shape=tableRow;horizontal=0;startSize=0;swimlaneHead=0;swimlaneBody=0;top=0;left=0;bottom=0;right=0;collapsible=0;dropTarget=0;points=[[0,0.5],[1,0.5]];portConstraint=eastwest;fontSize=16;fillColor=none;strokeColor=#BAC8D3;strokeWidth=2;rounded=0;" vertex="1" parent="bPTVYF2F344Qg-RBrNcO-344">
          <mxGeometry y="60" width="289" height="20" as="geometry" />
        </mxCell>
        <mxCell id="bPTVYF2F344Qg-RBrNcO-354" value="AÃ±os_en_puesto_:actual" style="shape=partialRectangle;html=1;whiteSpace=wrap;connectable=0;overflow=hidden;top=0;left=0;bottom=0;right=0;pointerEvents=1;fontSize=16;fillColor=none;strokeColor=#BAC8D3;strokeWidth=2;align=left;verticalAlign=bottom;spacingTop=-2;rounded=0;" vertex="1" parent="bPTVYF2F344Qg-RBrNcO-353">
          <mxGeometry width="183" height="20" as="geometry">
            <mxRectangle width="183" height="20" as="alternateBounds" />
          </mxGeometry>
        </mxCell>
        <mxCell id="bPTVYF2F344Qg-RBrNcO-355" value="" style="shape=partialRectangle;html=1;whiteSpace=wrap;connectable=0;overflow=hidden;top=0;left=0;bottom=0;right=0;pointerEvents=1;fontSize=16;fillColor=none;strokeColor=#BAC8D3;strokeWidth=2;rounded=0;" vertex="1" parent="bPTVYF2F344Qg-RBrNcO-353">
          <mxGeometry x="183" width="36" height="20" as="geometry">
            <mxRectangle width="36" height="20" as="alternateBounds" />
          </mxGeometry>
        </mxCell>
        <mxCell id="bPTVYF2F344Qg-RBrNcO-356" value="int, null" style="shape=partialRectangle;html=1;whiteSpace=wrap;connectable=0;overflow=hidden;top=0;left=0;bottom=0;right=0;pointerEvents=1;fontSize=16;fillColor=none;strokeColor=#BAC8D3;strokeWidth=2;align=left;verticalAlign=bottom;spacingTop=-2;rounded=0;" vertex="1" parent="bPTVYF2F344Qg-RBrNcO-353">
          <mxGeometry x="219" width="70" height="20" as="geometry">
            <mxRectangle width="70" height="20" as="alternateBounds" />
          </mxGeometry>
        </mxCell>
        <mxCell id="bPTVYF2F344Qg-RBrNcO-540" style="orthogonalLoop=1;jettySize=auto;html=1;exitX=0;exitY=0.25;exitDx=0;exitDy=0;endArrow=ERmandOne;endFill=0;startArrow=ERmandOne;startFill=0;" edge="1" parent="1" source="bPTVYF2F344Qg-RBrNcO-369">
          <mxGeometry relative="1" as="geometry">
            <mxPoint x="600" y="-480" as="targetPoint" />
          </mxGeometry>
        </mxCell>
        <mxCell id="bPTVYF2F344Qg-RBrNcO-369" value="TAREAS_Y_USOS" style="shape=table;startSize=20;container=1;collapsible=0;childLayout=tableLayout;fontSize=16;fillColor=#bac8d3;strokeColor=#BAC8D3;fontStyle=1;strokeWidth=2;verticalAlign=middle;spacing=2;horizontal=1;spacingTop=0;spacingRight=0;rounded=0;" vertex="1" parent="1">
          <mxGeometry x="700" y="-540" width="410" height="120" as="geometry" />
        </mxCell>
        <mxCell id="bPTVYF2F344Qg-RBrNcO-370" value="" style="shape=tableRow;horizontal=0;startSize=0;swimlaneHead=0;swimlaneBody=0;top=0;left=0;bottom=0;right=0;collapsible=0;dropTarget=0;points=[[0,0.5],[1,0.5]];portConstraint=eastwest;fontSize=16;fillColor=none;strokeColor=#BAC8D3;strokeWidth=2;rounded=0;" vertex="1" parent="bPTVYF2F344Qg-RBrNcO-369">
          <mxGeometry y="20" width="410" height="20" as="geometry" />
        </mxCell>
        <mxCell id="bPTVYF2F344Qg-RBrNcO-371" value="ID_empleado" style="shape=partialRectangle;html=1;whiteSpace=wrap;connectable=0;overflow=hidden;top=0;left=0;bottom=0;right=0;pointerEvents=1;fontSize=16;fillColor=none;strokeColor=#BAC8D3;strokeWidth=2;align=left;verticalAlign=bottom;spacingTop=-2;rounded=0;" vertex="1" parent="bPTVYF2F344Qg-RBrNcO-370">
          <mxGeometry width="230" height="20" as="geometry">
            <mxRectangle width="230" height="20" as="alternateBounds" />
          </mxGeometry>
        </mxCell>
        <mxCell id="bPTVYF2F344Qg-RBrNcO-372" value="FK" style="shape=partialRectangle;html=1;whiteSpace=wrap;connectable=0;overflow=hidden;top=0;left=0;bottom=0;right=0;pointerEvents=1;fontSize=16;fillColor=none;strokeColor=#BAC8D3;strokeWidth=2;verticalAlign=bottom;spacingTop=-1;rounded=0;" vertex="1" parent="bPTVYF2F344Qg-RBrNcO-370">
          <mxGeometry x="230" width="40" height="20" as="geometry">
            <mxRectangle width="40" height="20" as="alternateBounds" />
          </mxGeometry>
        </mxCell>
        <mxCell id="bPTVYF2F344Qg-RBrNcO-373" value="int, null" style="shape=partialRectangle;html=1;whiteSpace=wrap;connectable=0;overflow=hidden;top=0;left=0;bottom=0;right=0;pointerEvents=1;fontSize=16;fillColor=none;strokeColor=#BAC8D3;strokeWidth=2;align=left;spacingTop=-2;rounded=0;" vertex="1" parent="bPTVYF2F344Qg-RBrNcO-370">
          <mxGeometry x="270" width="140" height="20" as="geometry">
            <mxRectangle width="140" height="20" as="alternateBounds" />
          </mxGeometry>
        </mxCell>
        <mxCell id="bPTVYF2F344Qg-RBrNcO-374" value="" style="shape=tableRow;horizontal=0;startSize=0;swimlaneHead=0;swimlaneBody=0;top=0;left=0;bottom=0;right=0;collapsible=0;dropTarget=0;points=[[0,0.5],[1,0.5]];portConstraint=eastwest;fontSize=16;fillColor=none;strokeColor=#BAC8D3;strokeWidth=2;rounded=0;" vertex="1" parent="bPTVYF2F344Qg-RBrNcO-369">
          <mxGeometry y="40" width="410" height="20" as="geometry" />
        </mxCell>
        <mxCell id="bPTVYF2F344Qg-RBrNcO-375" value="Plataformas_utilizadas" style="shape=partialRectangle;html=1;whiteSpace=wrap;connectable=0;overflow=hidden;top=0;left=0;bottom=0;right=0;pointerEvents=1;fontSize=16;fillColor=none;strokeColor=#BAC8D3;strokeWidth=2;align=left;verticalAlign=bottom;spacingTop=-2;rounded=0;" vertex="1" parent="bPTVYF2F344Qg-RBrNcO-374">
          <mxGeometry width="230" height="20" as="geometry">
            <mxRectangle width="230" height="20" as="alternateBounds" />
          </mxGeometry>
        </mxCell>
        <mxCell id="bPTVYF2F344Qg-RBrNcO-376" value="" style="shape=partialRectangle;html=1;whiteSpace=wrap;connectable=0;overflow=hidden;top=0;left=0;bottom=0;right=0;pointerEvents=1;fontSize=16;fillColor=none;strokeColor=#BAC8D3;strokeWidth=2;rounded=0;" vertex="1" parent="bPTVYF2F344Qg-RBrNcO-374">
          <mxGeometry x="230" width="40" height="20" as="geometry">
            <mxRectangle width="40" height="20" as="alternateBounds" />
          </mxGeometry>
        </mxCell>
        <mxCell id="bPTVYF2F344Qg-RBrNcO-377" value="varchar(250), null" style="shape=partialRectangle;html=1;whiteSpace=wrap;connectable=0;overflow=hidden;top=0;left=0;bottom=0;right=0;pointerEvents=1;fontSize=16;fillColor=none;strokeColor=#BAC8D3;strokeWidth=2;align=left;verticalAlign=bottom;spacingTop=-2;rounded=0;" vertex="1" parent="bPTVYF2F344Qg-RBrNcO-374">
          <mxGeometry x="270" width="140" height="20" as="geometry">
            <mxRectangle width="140" height="20" as="alternateBounds" />
          </mxGeometry>
        </mxCell>
        <mxCell id="bPTVYF2F344Qg-RBrNcO-378" value="" style="shape=tableRow;horizontal=0;startSize=0;swimlaneHead=0;swimlaneBody=0;top=0;left=0;bottom=0;right=0;collapsible=0;dropTarget=0;points=[[0,0.5],[1,0.5]];portConstraint=eastwest;fontSize=16;fillColor=none;strokeColor=#BAC8D3;strokeWidth=2;rounded=0;" vertex="1" parent="bPTVYF2F344Qg-RBrNcO-369">
          <mxGeometry y="60" width="410" height="20" as="geometry" />
        </mxCell>
        <mxCell id="bPTVYF2F344Qg-RBrNcO-379" value="ProgramaciÃ³n_o_tecnologÃ­as" style="shape=partialRectangle;html=1;whiteSpace=wrap;connectable=0;overflow=hidden;top=0;left=0;bottom=0;right=0;pointerEvents=1;fontSize=16;fillColor=none;strokeColor=#BAC8D3;strokeWidth=2;align=left;verticalAlign=bottom;spacingTop=-2;rounded=0;" vertex="1" parent="bPTVYF2F344Qg-RBrNcO-378">
          <mxGeometry width="230" height="20" as="geometry">
            <mxRectangle width="230" height="20" as="alternateBounds" />
          </mxGeometry>
        </mxCell>
        <mxCell id="bPTVYF2F344Qg-RBrNcO-380" value="" style="shape=partialRectangle;html=1;whiteSpace=wrap;connectable=0;overflow=hidden;top=0;left=0;bottom=0;right=0;pointerEvents=1;fontSize=16;fillColor=none;strokeColor=#BAC8D3;strokeWidth=2;rounded=0;" vertex="1" parent="bPTVYF2F344Qg-RBrNcO-378">
          <mxGeometry x="230" width="40" height="20" as="geometry">
            <mxRectangle width="40" height="20" as="alternateBounds" />
          </mxGeometry>
        </mxCell>
        <mxCell id="bPTVYF2F344Qg-RBrNcO-381" value="varchar(250), null" style="shape=partialRectangle;html=1;whiteSpace=wrap;connectable=0;overflow=hidden;top=0;left=0;bottom=0;right=0;pointerEvents=1;fontSize=16;fillColor=none;strokeColor=#BAC8D3;strokeWidth=2;align=left;verticalAlign=bottom;spacingTop=-2;rounded=0;" vertex="1" parent="bPTVYF2F344Qg-RBrNcO-378">
          <mxGeometry x="270" width="140" height="20" as="geometry">
            <mxRectangle width="140" height="20" as="alternateBounds" />
          </mxGeometry>
        </mxCell>
        <mxCell id="bPTVYF2F344Qg-RBrNcO-382" style="shape=tableRow;horizontal=0;startSize=0;swimlaneHead=0;swimlaneBody=0;top=0;left=0;bottom=0;right=0;collapsible=0;dropTarget=0;points=[[0,0.5],[1,0.5]];portConstraint=eastwest;fontSize=16;fillColor=none;strokeColor=#BAC8D3;strokeWidth=2;rounded=0;" vertex="1" parent="bPTVYF2F344Qg-RBrNcO-369">
          <mxGeometry y="80" width="410" height="20" as="geometry" />
        </mxCell>
        <mxCell id="bPTVYF2F344Qg-RBrNcO-383" value="Bases_de_datos" style="shape=partialRectangle;html=1;whiteSpace=wrap;connectable=0;overflow=hidden;top=0;left=0;bottom=0;right=0;pointerEvents=1;fontSize=16;fillColor=none;strokeColor=#BAC8D3;strokeWidth=2;align=left;verticalAlign=bottom;spacingTop=-2;rounded=0;" vertex="1" parent="bPTVYF2F344Qg-RBrNcO-382">
          <mxGeometry width="230" height="20" as="geometry">
            <mxRectangle width="230" height="20" as="alternateBounds" />
          </mxGeometry>
        </mxCell>
        <mxCell id="bPTVYF2F344Qg-RBrNcO-384" style="shape=partialRectangle;html=1;whiteSpace=wrap;connectable=0;overflow=hidden;top=0;left=0;bottom=0;right=0;pointerEvents=1;fontSize=16;fillColor=none;strokeColor=#BAC8D3;strokeWidth=2;rounded=0;" vertex="1" parent="bPTVYF2F344Qg-RBrNcO-382">
          <mxGeometry x="230" width="40" height="20" as="geometry">
            <mxRectangle width="40" height="20" as="alternateBounds" />
          </mxGeometry>
        </mxCell>
        <mxCell id="bPTVYF2F344Qg-RBrNcO-385" value="varchar(250), null" style="shape=partialRectangle;html=1;whiteSpace=wrap;connectable=0;overflow=hidden;top=0;left=0;bottom=0;right=0;pointerEvents=1;fontSize=16;fillColor=none;strokeColor=#BAC8D3;strokeWidth=2;align=left;verticalAlign=bottom;spacingTop=-2;rounded=0;" vertex="1" parent="bPTVYF2F344Qg-RBrNcO-382">
          <mxGeometry x="270" width="140" height="20" as="geometry">
            <mxRectangle width="140" height="20" as="alternateBounds" />
          </mxGeometry>
        </mxCell>
        <mxCell id="bPTVYF2F344Qg-RBrNcO-386" style="shape=tableRow;horizontal=0;startSize=0;swimlaneHead=0;swimlaneBody=0;top=0;left=0;bottom=0;right=0;collapsible=0;dropTarget=0;points=[[0,0.5],[1,0.5]];portConstraint=eastwest;fontSize=16;fillColor=none;strokeColor=#BAC8D3;strokeWidth=2;rounded=0;" vertex="1" parent="bPTVYF2F344Qg-RBrNcO-369">
          <mxGeometry y="100" width="410" height="20" as="geometry" />
        </mxCell>
        <mxCell id="bPTVYF2F344Qg-RBrNcO-387" value="QA_testing" style="shape=partialRectangle;html=1;whiteSpace=wrap;connectable=0;overflow=hidden;top=0;left=0;bottom=0;right=0;pointerEvents=1;fontSize=16;fillColor=none;strokeColor=#BAC8D3;strokeWidth=2;align=left;verticalAlign=bottom;spacingTop=-2;rounded=0;" vertex="1" parent="bPTVYF2F344Qg-RBrNcO-386">
          <mxGeometry width="230" height="20" as="geometry">
            <mxRectangle width="230" height="20" as="alternateBounds" />
          </mxGeometry>
        </mxCell>
        <mxCell id="bPTVYF2F344Qg-RBrNcO-388" style="shape=partialRectangle;html=1;whiteSpace=wrap;connectable=0;overflow=hidden;top=0;left=0;bottom=0;right=0;pointerEvents=1;fontSize=16;fillColor=none;strokeColor=#BAC8D3;strokeWidth=2;rounded=0;" vertex="1" parent="bPTVYF2F344Qg-RBrNcO-386">
          <mxGeometry x="230" width="40" height="20" as="geometry">
            <mxRectangle width="40" height="20" as="alternateBounds" />
          </mxGeometry>
        </mxCell>
        <mxCell id="bPTVYF2F344Qg-RBrNcO-389" value="varchar(250), null" style="shape=partialRectangle;html=1;whiteSpace=wrap;connectable=0;overflow=hidden;top=0;left=0;bottom=0;right=0;pointerEvents=1;fontSize=16;fillColor=none;strokeColor=#BAC8D3;strokeWidth=2;align=left;verticalAlign=bottom;spacingTop=-2;rounded=0;" vertex="1" parent="bPTVYF2F344Qg-RBrNcO-386">
          <mxGeometry x="270" width="140" height="20" as="geometry">
            <mxRectangle width="140" height="20" as="alternateBounds" />
          </mxGeometry>
        </mxCell>
        <mxCell id="bPTVYF2F344Qg-RBrNcO-394" value="EMPLEADO" style="shape=table;startSize=20;container=1;collapsible=0;childLayout=tableLayout;fontSize=16;fillColor=#bac8d3;strokeColor=#BAC8D3;fontStyle=1;strokeWidth=2;verticalAlign=middle;spacing=2;horizontal=1;spacingTop=0;spacingRight=0;rounded=0;" vertex="1" parent="1">
          <mxGeometry x="275" y="-510" width="320" height="200" as="geometry" />
        </mxCell>
        <mxCell id="bPTVYF2F344Qg-RBrNcO-12" value="" style="shape=tableRow;horizontal=0;startSize=0;swimlaneHead=0;swimlaneBody=0;top=0;left=0;bottom=0;right=0;collapsible=0;dropTarget=0;points=[[0,0.5],[1,0.5]];portConstraint=eastwest;fontSize=16;fillColor=none;strokeColor=#BAC8D3;strokeWidth=2;rounded=0;" vertex="1" parent="bPTVYF2F344Qg-RBrNcO-394">
          <mxGeometry y="20" width="320" height="20" as="geometry" />
        </mxCell>
        <mxCell id="bPTVYF2F344Qg-RBrNcO-13" value="ID_empleado" style="shape=partialRectangle;html=1;whiteSpace=wrap;connectable=0;overflow=hidden;top=0;left=0;bottom=0;right=0;pointerEvents=1;fontSize=16;fillColor=none;strokeColor=#BAC8D3;strokeWidth=2;align=left;verticalAlign=bottom;spacingTop=-2;rounded=0;" vertex="1" parent="bPTVYF2F344Qg-RBrNcO-12">
          <mxGeometry width="121" height="20" as="geometry">
            <mxRectangle width="121" height="20" as="alternateBounds" />
          </mxGeometry>
        </mxCell>
        <mxCell id="bPTVYF2F344Qg-RBrNcO-14" value="PK" style="shape=partialRectangle;html=1;whiteSpace=wrap;connectable=0;overflow=hidden;top=0;left=0;bottom=0;right=0;pointerEvents=1;fontSize=16;fillColor=none;strokeColor=#BAC8D3;strokeWidth=2;verticalAlign=bottom;spacingTop=-1;rounded=0;" vertex="1" parent="bPTVYF2F344Qg-RBrNcO-12">
          <mxGeometry x="121" width="33" height="20" as="geometry">
            <mxRectangle width="33" height="20" as="alternateBounds" />
          </mxGeometry>
        </mxCell>
        <mxCell id="bPTVYF2F344Qg-RBrNcO-15" value="int, not null, identity" style="shape=partialRectangle;html=1;whiteSpace=wrap;connectable=0;overflow=hidden;top=0;left=0;bottom=0;right=0;pointerEvents=1;fontSize=16;fillColor=none;strokeColor=#BAC8D3;strokeWidth=2;align=left;spacingTop=-2;rounded=0;" vertex="1" parent="bPTVYF2F344Qg-RBrNcO-12">
          <mxGeometry x="154" width="166" height="20" as="geometry">
            <mxRectangle width="166" height="20" as="alternateBounds" />
          </mxGeometry>
        </mxCell>
        <mxCell id="bPTVYF2F344Qg-RBrNcO-16" value="" style="shape=tableRow;horizontal=0;startSize=0;swimlaneHead=0;swimlaneBody=0;top=0;left=0;bottom=0;right=0;collapsible=0;dropTarget=0;points=[[0,0.5],[1,0.5]];portConstraint=eastwest;fontSize=16;fillColor=none;strokeColor=#BAC8D3;strokeWidth=2;rounded=0;" vertex="1" parent="bPTVYF2F344Qg-RBrNcO-394">
          <mxGeometry y="40" width="320" height="20" as="geometry" />
        </mxCell>
        <mxCell id="bPTVYF2F344Qg-RBrNcO-17" value="UbicaciÃ³n" style="shape=partialRectangle;html=1;whiteSpace=wrap;connectable=0;overflow=hidden;top=0;left=0;bottom=0;right=0;pointerEvents=1;fontSize=16;fillColor=none;strokeColor=#BAC8D3;strokeWidth=2;align=left;verticalAlign=bottom;spacingTop=-2;rounded=0;" vertex="1" parent="bPTVYF2F344Qg-RBrNcO-16">
          <mxGeometry width="121" height="20" as="geometry">
            <mxRectangle width="121" height="20" as="alternateBounds" />
          </mxGeometry>
        </mxCell>
        <mxCell id="bPTVYF2F344Qg-RBrNcO-18" value="" style="shape=partialRectangle;html=1;whiteSpace=wrap;connectable=0;overflow=hidden;top=0;left=0;bottom=0;right=0;pointerEvents=1;fontSize=16;fillColor=none;strokeColor=#BAC8D3;strokeWidth=2;rounded=0;" vertex="1" parent="bPTVYF2F344Qg-RBrNcO-16">
          <mxGeometry x="121" width="33" height="20" as="geometry">
            <mxRectangle width="33" height="20" as="alternateBounds" />
          </mxGeometry>
        </mxCell>
        <mxCell id="bPTVYF2F344Qg-RBrNcO-19" value="varchar(100), null" style="shape=partialRectangle;html=1;whiteSpace=wrap;connectable=0;overflow=hidden;top=0;left=0;bottom=0;right=0;pointerEvents=1;fontSize=16;fillColor=none;strokeColor=#BAC8D3;strokeWidth=2;align=left;verticalAlign=bottom;spacingTop=-2;rounded=0;" vertex="1" parent="bPTVYF2F344Qg-RBrNcO-16">
          <mxGeometry x="154" width="166" height="20" as="geometry">
            <mxRectangle width="166" height="20" as="alternateBounds" />
          </mxGeometry>
        </mxCell>
        <mxCell id="bPTVYF2F344Qg-RBrNcO-20" value="" style="shape=tableRow;horizontal=0;startSize=0;swimlaneHead=0;swimlaneBody=0;top=0;left=0;bottom=0;right=0;collapsible=0;dropTarget=0;points=[[0,0.5],[1,0.5]];portConstraint=eastwest;fontSize=16;fillColor=none;strokeColor=#BAC8D3;strokeWidth=2;rounded=0;" vertex="1" parent="bPTVYF2F344Qg-RBrNcO-394">
          <mxGeometry y="60" width="320" height="20" as="geometry" />
        </mxCell>
        <mxCell id="bPTVYF2F344Qg-RBrNcO-21" value="GÃ©nero" style="shape=partialRectangle;html=1;whiteSpace=wrap;connectable=0;overflow=hidden;top=0;left=0;bottom=0;right=0;pointerEvents=1;fontSize=16;fillColor=none;strokeColor=#BAC8D3;strokeWidth=2;align=left;verticalAlign=bottom;spacingTop=-2;rounded=0;" vertex="1" parent="bPTVYF2F344Qg-RBrNcO-20">
          <mxGeometry width="121" height="20" as="geometry">
            <mxRectangle width="121" height="20" as="alternateBounds" />
          </mxGeometry>
        </mxCell>
        <mxCell id="bPTVYF2F344Qg-RBrNcO-22" value="" style="shape=partialRectangle;html=1;whiteSpace=wrap;connectable=0;overflow=hidden;top=0;left=0;bottom=0;right=0;pointerEvents=1;fontSize=16;fillColor=none;strokeColor=#BAC8D3;strokeWidth=2;rounded=0;" vertex="1" parent="bPTVYF2F344Qg-RBrNcO-20">
          <mxGeometry x="121" width="33" height="20" as="geometry">
            <mxRectangle width="33" height="20" as="alternateBounds" />
          </mxGeometry>
        </mxCell>
        <mxCell id="bPTVYF2F344Qg-RBrNcO-23" value="varchar(25), null" style="shape=partialRectangle;html=1;whiteSpace=wrap;connectable=0;overflow=hidden;top=0;left=0;bottom=0;right=0;pointerEvents=1;fontSize=16;fillColor=none;strokeColor=#BAC8D3;strokeWidth=2;align=left;verticalAlign=bottom;spacingTop=-2;rounded=0;" vertex="1" parent="bPTVYF2F344Qg-RBrNcO-20">
          <mxGeometry x="154" width="166" height="20" as="geometry">
            <mxRectangle width="166" height="20" as="alternateBounds" />
          </mxGeometry>
        </mxCell>
        <mxCell id="bPTVYF2F344Qg-RBrNcO-69" style="shape=tableRow;horizontal=0;startSize=0;swimlaneHead=0;swimlaneBody=0;top=0;left=0;bottom=0;right=0;collapsible=0;dropTarget=0;points=[[0,0.5],[1,0.5]];portConstraint=eastwest;fontSize=16;fillColor=none;strokeColor=#BAC8D3;strokeWidth=2;rounded=0;" vertex="1" parent="bPTVYF2F344Qg-RBrNcO-394">
          <mxGeometry y="80" width="320" height="20" as="geometry" />
        </mxCell>
        <mxCell id="bPTVYF2F344Qg-RBrNcO-70" value="Edad" style="shape=partialRectangle;html=1;whiteSpace=wrap;connectable=0;overflow=hidden;top=0;left=0;bottom=0;right=0;pointerEvents=1;fontSize=16;fillColor=none;strokeColor=#BAC8D3;strokeWidth=2;align=left;verticalAlign=bottom;spacingTop=-2;rounded=0;" vertex="1" parent="bPTVYF2F344Qg-RBrNcO-69">
          <mxGeometry width="121" height="20" as="geometry">
            <mxRectangle width="121" height="20" as="alternateBounds" />
          </mxGeometry>
        </mxCell>
        <mxCell id="bPTVYF2F344Qg-RBrNcO-71" style="shape=partialRectangle;html=1;whiteSpace=wrap;connectable=0;overflow=hidden;top=0;left=0;bottom=0;right=0;pointerEvents=1;fontSize=16;fillColor=none;strokeColor=#BAC8D3;strokeWidth=2;rounded=0;" vertex="1" parent="bPTVYF2F344Qg-RBrNcO-69">
          <mxGeometry x="121" width="33" height="20" as="geometry">
            <mxRectangle width="33" height="20" as="alternateBounds" />
          </mxGeometry>
        </mxCell>
        <mxCell id="bPTVYF2F344Qg-RBrNcO-72" value="int, null" style="shape=partialRectangle;html=1;whiteSpace=wrap;connectable=0;overflow=hidden;top=0;left=0;bottom=0;right=0;pointerEvents=1;fontSize=16;fillColor=none;strokeColor=#BAC8D3;strokeWidth=2;align=left;verticalAlign=bottom;spacingTop=-2;rounded=0;" vertex="1" parent="bPTVYF2F344Qg-RBrNcO-69">
          <mxGeometry x="154" width="166" height="20" as="geometry">
            <mxRectangle width="166" height="20" as="alternateBounds" />
          </mxGeometry>
        </mxCell>
        <mxCell id="bPTVYF2F344Qg-RBrNcO-73" style="shape=tableRow;horizontal=0;startSize=0;swimlaneHead=0;swimlaneBody=0;top=0;left=0;bottom=0;right=0;collapsible=0;dropTarget=0;points=[[0,0.5],[1,0.5]];portConstraint=eastwest;fontSize=16;fillColor=none;strokeColor=#BAC8D3;strokeWidth=2;rounded=0;" vertex="1" parent="bPTVYF2F344Qg-RBrNcO-394">
          <mxGeometry y="100" width="320" height="20" as="geometry" />
        </mxCell>
        <mxCell id="bPTVYF2F344Qg-RBrNcO-74" value="DedicaciÃ³n" style="shape=partialRectangle;html=1;whiteSpace=wrap;connectable=0;overflow=hidden;top=0;left=0;bottom=0;right=0;pointerEvents=1;fontSize=16;fillColor=none;strokeColor=#BAC8D3;strokeWidth=2;align=left;verticalAlign=bottom;spacingTop=-2;rounded=0;" vertex="1" parent="bPTVYF2F344Qg-RBrNcO-73">
          <mxGeometry width="121" height="20" as="geometry">
            <mxRectangle width="121" height="20" as="alternateBounds" />
          </mxGeometry>
        </mxCell>
        <mxCell id="bPTVYF2F344Qg-RBrNcO-75" style="shape=partialRectangle;html=1;whiteSpace=wrap;connectable=0;overflow=hidden;top=0;left=0;bottom=0;right=0;pointerEvents=1;fontSize=16;fillColor=none;strokeColor=#BAC8D3;strokeWidth=2;rounded=0;" vertex="1" parent="bPTVYF2F344Qg-RBrNcO-73">
          <mxGeometry x="121" width="33" height="20" as="geometry">
            <mxRectangle width="33" height="20" as="alternateBounds" />
          </mxGeometry>
        </mxCell>
        <mxCell id="bPTVYF2F344Qg-RBrNcO-76" value="varchar(25), null" style="shape=partialRectangle;html=1;whiteSpace=wrap;connectable=0;overflow=hidden;top=0;left=0;bottom=0;right=0;pointerEvents=1;fontSize=16;fillColor=none;strokeColor=#BAC8D3;strokeWidth=2;align=left;verticalAlign=bottom;spacingTop=-2;rounded=0;" vertex="1" parent="bPTVYF2F344Qg-RBrNcO-73">
          <mxGeometry x="154" width="166" height="20" as="geometry">
            <mxRectangle width="166" height="20" as="alternateBounds" />
          </mxGeometry>
        </mxCell>
        <mxCell id="bPTVYF2F344Qg-RBrNcO-77" style="shape=tableRow;horizontal=0;startSize=0;swimlaneHead=0;swimlaneBody=0;top=0;left=0;bottom=0;right=0;collapsible=0;dropTarget=0;points=[[0,0.5],[1,0.5]];portConstraint=eastwest;fontSize=16;fillColor=none;strokeColor=#BAC8D3;strokeWidth=2;align=left;rounded=0;" vertex="1" parent="bPTVYF2F344Qg-RBrNcO-394">
          <mxGeometry y="120" width="320" height="20" as="geometry" />
        </mxCell>
        <mxCell id="bPTVYF2F344Qg-RBrNcO-78" value="Seniority" style="shape=partialRectangle;html=1;whiteSpace=wrap;connectable=0;overflow=hidden;top=0;left=0;bottom=0;right=0;pointerEvents=1;fontSize=16;fillColor=none;strokeColor=#BAC8D3;strokeWidth=2;align=left;verticalAlign=bottom;spacingTop=-2;rounded=0;" vertex="1" parent="bPTVYF2F344Qg-RBrNcO-77">
          <mxGeometry width="121" height="20" as="geometry">
            <mxRectangle width="121" height="20" as="alternateBounds" />
          </mxGeometry>
        </mxCell>
        <mxCell id="bPTVYF2F344Qg-RBrNcO-79" style="shape=partialRectangle;html=1;whiteSpace=wrap;connectable=0;overflow=hidden;top=0;left=0;bottom=0;right=0;pointerEvents=1;fontSize=16;fillColor=none;strokeColor=#BAC8D3;strokeWidth=2;rounded=0;" vertex="1" parent="bPTVYF2F344Qg-RBrNcO-77">
          <mxGeometry x="121" width="33" height="20" as="geometry">
            <mxRectangle width="33" height="20" as="alternateBounds" />
          </mxGeometry>
        </mxCell>
        <mxCell id="bPTVYF2F344Qg-RBrNcO-80" value="varchar(25), null" style="shape=partialRectangle;html=1;whiteSpace=wrap;connectable=0;overflow=hidden;top=0;left=0;bottom=0;right=0;pointerEvents=1;fontSize=16;fillColor=none;strokeColor=#BAC8D3;strokeWidth=2;align=left;verticalAlign=bottom;spacingTop=-2;rounded=0;" vertex="1" parent="bPTVYF2F344Qg-RBrNcO-77">
          <mxGeometry x="154" width="166" height="20" as="geometry">
            <mxRectangle width="166" height="20" as="alternateBounds" />
          </mxGeometry>
        </mxCell>
        <mxCell id="bPTVYF2F344Qg-RBrNcO-81" style="shape=tableRow;horizontal=0;startSize=0;swimlaneHead=0;swimlaneBody=0;top=0;left=0;bottom=0;right=0;collapsible=0;dropTarget=0;points=[[0,0.5],[1,0.5]];portConstraint=eastwest;fontSize=16;fillColor=none;strokeColor=#BAC8D3;strokeWidth=2;rounded=0;" vertex="1" parent="bPTVYF2F344Qg-RBrNcO-394">
          <mxGeometry y="140" width="320" height="20" as="geometry" />
        </mxCell>
        <mxCell id="bPTVYF2F344Qg-RBrNcO-82" value="ID_trabajo" style="shape=partialRectangle;html=1;whiteSpace=wrap;connectable=0;overflow=hidden;top=0;left=0;bottom=0;right=0;pointerEvents=1;fontSize=16;fillColor=none;strokeColor=#BAC8D3;strokeWidth=2;align=left;verticalAlign=bottom;spacingTop=-2;rounded=0;" vertex="1" parent="bPTVYF2F344Qg-RBrNcO-81">
          <mxGeometry width="121" height="20" as="geometry">
            <mxRectangle width="121" height="20" as="alternateBounds" />
          </mxGeometry>
        </mxCell>
        <mxCell id="bPTVYF2F344Qg-RBrNcO-83" value="FK" style="shape=partialRectangle;html=1;whiteSpace=wrap;connectable=0;overflow=hidden;top=0;left=0;bottom=0;right=0;pointerEvents=1;fontSize=16;fillColor=none;strokeColor=#BAC8D3;strokeWidth=2;verticalAlign=bottom;spacingTop=-1;rounded=0;" vertex="1" parent="bPTVYF2F344Qg-RBrNcO-81">
          <mxGeometry x="121" width="33" height="20" as="geometry">
            <mxRectangle width="33" height="20" as="alternateBounds" />
          </mxGeometry>
        </mxCell>
        <mxCell id="bPTVYF2F344Qg-RBrNcO-84" value="int, null" style="shape=partialRectangle;html=1;whiteSpace=wrap;connectable=0;overflow=hidden;top=0;left=0;bottom=0;right=0;pointerEvents=1;fontSize=16;fillColor=none;strokeColor=#BAC8D3;strokeWidth=2;align=left;verticalAlign=bottom;spacingTop=-2;rounded=0;" vertex="1" parent="bPTVYF2F344Qg-RBrNcO-81">
          <mxGeometry x="154" width="166" height="20" as="geometry">
            <mxRectangle width="166" height="20" as="alternateBounds" />
          </mxGeometry>
        </mxCell>
        <mxCell id="bPTVYF2F344Qg-RBrNcO-85" style="shape=tableRow;horizontal=0;startSize=0;swimlaneHead=0;swimlaneBody=0;top=0;left=0;bottom=0;right=0;collapsible=0;dropTarget=0;points=[[0,0.5],[1,0.5]];portConstraint=eastwest;fontSize=16;fillColor=none;strokeColor=#BAC8D3;strokeWidth=2;rounded=0;" vertex="1" parent="bPTVYF2F344Qg-RBrNcO-394">
          <mxGeometry y="160" width="320" height="20" as="geometry" />
        </mxCell>
        <mxCell id="bPTVYF2F344Qg-RBrNcO-86" value="ID_contrato" style="shape=partialRectangle;html=1;whiteSpace=wrap;connectable=0;overflow=hidden;top=0;left=0;bottom=0;right=0;pointerEvents=1;fontSize=16;fillColor=none;strokeColor=#BAC8D3;strokeWidth=2;align=left;verticalAlign=bottom;spacingTop=-2;rounded=0;" vertex="1" parent="bPTVYF2F344Qg-RBrNcO-85">
          <mxGeometry width="121" height="20" as="geometry">
            <mxRectangle width="121" height="20" as="alternateBounds" />
          </mxGeometry>
        </mxCell>
        <mxCell id="bPTVYF2F344Qg-RBrNcO-87" value="FK" style="shape=partialRectangle;html=1;whiteSpace=wrap;connectable=0;overflow=hidden;top=0;left=0;bottom=0;right=0;pointerEvents=1;fontSize=16;fillColor=none;strokeColor=#BAC8D3;strokeWidth=2;verticalAlign=bottom;spacingTop=-1;rounded=0;" vertex="1" parent="bPTVYF2F344Qg-RBrNcO-85">
          <mxGeometry x="121" width="33" height="20" as="geometry">
            <mxRectangle width="33" height="20" as="alternateBounds" />
          </mxGeometry>
        </mxCell>
        <mxCell id="bPTVYF2F344Qg-RBrNcO-88" value="int, null" style="shape=partialRectangle;html=1;whiteSpace=wrap;connectable=0;overflow=hidden;top=0;left=0;bottom=0;right=0;pointerEvents=1;fontSize=16;fillColor=none;strokeColor=#BAC8D3;strokeWidth=2;align=left;verticalAlign=bottom;spacingTop=-2;rounded=0;" vertex="1" parent="bPTVYF2F344Qg-RBrNcO-85">
          <mxGeometry x="154" width="166" height="20" as="geometry">
            <mxRectangle width="166" height="20" as="alternateBounds" />
          </mxGeometry>
        </mxCell>
        <mxCell id="bPTVYF2F344Qg-RBrNcO-89" style="shape=tableRow;horizontal=0;startSize=0;swimlaneHead=0;swimlaneBody=0;top=0;left=0;bottom=0;right=0;collapsible=0;dropTarget=0;points=[[0,0.5],[1,0.5]];portConstraint=eastwest;fontSize=16;fillColor=none;strokeColor=#BAC8D3;strokeWidth=2;rounded=0;" vertex="1" parent="bPTVYF2F344Qg-RBrNcO-394">
          <mxGeometry y="180" width="320" height="20" as="geometry" />
        </mxCell>
        <mxCell id="bPTVYF2F344Qg-RBrNcO-90" value="ID_modalidad" style="shape=partialRectangle;html=1;whiteSpace=wrap;connectable=0;overflow=hidden;top=0;left=0;bottom=0;right=0;pointerEvents=1;fontSize=16;fillColor=none;strokeColor=#BAC8D3;strokeWidth=2;align=left;verticalAlign=bottom;spacingTop=-2;rounded=0;" vertex="1" parent="bPTVYF2F344Qg-RBrNcO-89">
          <mxGeometry width="121" height="20" as="geometry">
            <mxRectangle width="121" height="20" as="alternateBounds" />
          </mxGeometry>
        </mxCell>
        <mxCell id="bPTVYF2F344Qg-RBrNcO-91" value="FK" style="shape=partialRectangle;html=1;whiteSpace=wrap;connectable=0;overflow=hidden;top=0;left=0;bottom=0;right=0;pointerEvents=1;fontSize=16;fillColor=none;strokeColor=#BAC8D3;strokeWidth=2;verticalAlign=bottom;spacingTop=-1;rounded=0;" vertex="1" parent="bPTVYF2F344Qg-RBrNcO-89">
          <mxGeometry x="121" width="33" height="20" as="geometry">
            <mxRectangle width="33" height="20" as="alternateBounds" />
          </mxGeometry>
        </mxCell>
        <mxCell id="bPTVYF2F344Qg-RBrNcO-92" value="int, null" style="shape=partialRectangle;html=1;whiteSpace=wrap;connectable=0;overflow=hidden;top=0;left=0;bottom=0;right=0;pointerEvents=1;fontSize=16;fillColor=none;strokeColor=#BAC8D3;strokeWidth=2;align=left;verticalAlign=bottom;spacingTop=-2;rounded=0;" vertex="1" parent="bPTVYF2F344Qg-RBrNcO-89">
          <mxGeometry x="154" width="166" height="20" as="geometry">
            <mxRectangle width="166" height="20" as="alternateBounds" />
          </mxGeometry>
        </mxCell>
        <mxCell id="bPTVYF2F344Qg-RBrNcO-539" style="orthogonalLoop=1;jettySize=auto;html=1;exitX=0;exitY=0.5;exitDx=0;exitDy=0;entryX=1;entryY=0.5;entryDx=0;entryDy=0;endArrow=ERmandOne;endFill=0;startArrow=ERmandOne;startFill=0;" edge="1" parent="1" source="bPTVYF2F344Qg-RBrNcO-416" target="bPTVYF2F344Qg-RBrNcO-12">
          <mxGeometry relative="1" as="geometry" />
        </mxCell>
        <mxCell id="bPTVYF2F344Qg-RBrNcO-415" value="ENCUESTAS" style="shape=table;startSize=20;container=1;collapsible=0;childLayout=tableLayout;fontSize=16;fillColor=#bac8d3;strokeColor=#BAC8D3;fontStyle=1;strokeWidth=2;verticalAlign=middle;spacing=2;horizontal=1;spacingTop=0;spacingRight=0;rounded=0;" vertex="1" parent="1">
          <mxGeometry x="700" y="-390" width="550" height="140" as="geometry" />
        </mxCell>
        <mxCell id="bPTVYF2F344Qg-RBrNcO-416" value="" style="shape=tableRow;horizontal=0;startSize=0;swimlaneHead=0;swimlaneBody=0;top=0;left=0;bottom=0;right=0;collapsible=0;dropTarget=0;points=[[0,0.5],[1,0.5]];portConstraint=eastwest;fontSize=16;fillColor=none;strokeColor=#BAC8D3;strokeWidth=2;rounded=0;" vertex="1" parent="bPTVYF2F344Qg-RBrNcO-415">
          <mxGeometry y="20" width="550" height="20" as="geometry" />
        </mxCell>
        <mxCell id="bPTVYF2F344Qg-RBrNcO-417" value="ID_empleado" style="shape=partialRectangle;html=1;whiteSpace=wrap;connectable=0;overflow=hidden;top=0;left=0;bottom=0;right=0;pointerEvents=1;fontSize=16;fillColor=none;strokeColor=#BAC8D3;strokeWidth=2;align=left;verticalAlign=bottom;spacingTop=-2;rounded=0;" vertex="1" parent="bPTVYF2F344Qg-RBrNcO-416">
          <mxGeometry width="330" height="20" as="geometry">
            <mxRectangle width="330" height="20" as="alternateBounds" />
          </mxGeometry>
        </mxCell>
        <mxCell id="bPTVYF2F344Qg-RBrNcO-418" value="FK" style="shape=partialRectangle;html=1;whiteSpace=wrap;connectable=0;overflow=hidden;top=0;left=0;bottom=0;right=0;pointerEvents=1;fontSize=16;fillColor=none;strokeColor=#BAC8D3;strokeWidth=2;verticalAlign=bottom;spacingTop=-1;rounded=0;" vertex="1" parent="bPTVYF2F344Qg-RBrNcO-416">
          <mxGeometry x="330" width="30" height="20" as="geometry">
            <mxRectangle width="30" height="20" as="alternateBounds" />
          </mxGeometry>
        </mxCell>
        <mxCell id="bPTVYF2F344Qg-RBrNcO-419" value="int, null" style="shape=partialRectangle;html=1;whiteSpace=wrap;connectable=0;overflow=hidden;top=0;left=0;bottom=0;right=0;pointerEvents=1;fontSize=16;fillColor=none;strokeColor=#BAC8D3;strokeWidth=2;align=left;spacingTop=-2;rounded=0;" vertex="1" parent="bPTVYF2F344Qg-RBrNcO-416">
          <mxGeometry x="360" width="190" height="20" as="geometry">
            <mxRectangle width="190" height="20" as="alternateBounds" />
          </mxGeometry>
        </mxCell>
        <mxCell id="bPTVYF2F344Qg-RBrNcO-420" value="" style="shape=tableRow;horizontal=0;startSize=0;swimlaneHead=0;swimlaneBody=0;top=0;left=0;bottom=0;right=0;collapsible=0;dropTarget=0;points=[[0,0.5],[1,0.5]];portConstraint=eastwest;fontSize=16;fillColor=none;strokeColor=#BAC8D3;strokeWidth=2;rounded=0;" vertex="1" parent="bPTVYF2F344Qg-RBrNcO-415">
          <mxGeometry y="40" width="550" height="20" as="geometry" />
        </mxCell>
        <mxCell id="bPTVYF2F344Qg-RBrNcO-421" value="Buscando_trabajo" style="shape=partialRectangle;html=1;whiteSpace=wrap;connectable=0;overflow=hidden;top=0;left=0;bottom=0;right=0;pointerEvents=1;fontSize=16;fillColor=none;strokeColor=#BAC8D3;strokeWidth=2;align=left;verticalAlign=bottom;spacingTop=-2;rounded=0;" vertex="1" parent="bPTVYF2F344Qg-RBrNcO-420">
          <mxGeometry width="330" height="20" as="geometry">
            <mxRectangle width="330" height="20" as="alternateBounds" />
          </mxGeometry>
        </mxCell>
        <mxCell id="bPTVYF2F344Qg-RBrNcO-422" value="" style="shape=partialRectangle;html=1;whiteSpace=wrap;connectable=0;overflow=hidden;top=0;left=0;bottom=0;right=0;pointerEvents=1;fontSize=16;fillColor=none;strokeColor=#BAC8D3;strokeWidth=2;rounded=0;" vertex="1" parent="bPTVYF2F344Qg-RBrNcO-420">
          <mxGeometry x="330" width="30" height="20" as="geometry">
            <mxRectangle width="30" height="20" as="alternateBounds" />
          </mxGeometry>
        </mxCell>
        <mxCell id="bPTVYF2F344Qg-RBrNcO-423" value="varchar(50), null" style="shape=partialRectangle;html=1;whiteSpace=wrap;connectable=0;overflow=hidden;top=0;left=0;bottom=0;right=0;pointerEvents=1;fontSize=16;fillColor=none;strokeColor=#BAC8D3;strokeWidth=2;align=left;verticalAlign=bottom;spacingTop=-2;rounded=0;" vertex="1" parent="bPTVYF2F344Qg-RBrNcO-420">
          <mxGeometry x="360" width="190" height="20" as="geometry">
            <mxRectangle width="190" height="20" as="alternateBounds" />
          </mxGeometry>
        </mxCell>
        <mxCell id="bPTVYF2F344Qg-RBrNcO-424" value="" style="shape=tableRow;horizontal=0;startSize=0;swimlaneHead=0;swimlaneBody=0;top=0;left=0;bottom=0;right=0;collapsible=0;dropTarget=0;points=[[0,0.5],[1,0.5]];portConstraint=eastwest;fontSize=16;fillColor=none;strokeColor=#BAC8D3;strokeWidth=2;rounded=0;" vertex="1" parent="bPTVYF2F344Qg-RBrNcO-415">
          <mxGeometry y="60" width="550" height="20" as="geometry" />
        </mxCell>
        <mxCell id="bPTVYF2F344Qg-RBrNcO-425" value="Conformidad_salarial_vs_semestre_anterior" style="shape=partialRectangle;html=1;whiteSpace=wrap;connectable=0;overflow=hidden;top=0;left=0;bottom=0;right=0;pointerEvents=1;fontSize=16;fillColor=none;strokeColor=#BAC8D3;strokeWidth=2;align=left;verticalAlign=bottom;spacingTop=-2;rounded=0;" vertex="1" parent="bPTVYF2F344Qg-RBrNcO-424">
          <mxGeometry width="330" height="20" as="geometry">
            <mxRectangle width="330" height="20" as="alternateBounds" />
          </mxGeometry>
        </mxCell>
        <mxCell id="bPTVYF2F344Qg-RBrNcO-426" value="" style="shape=partialRectangle;html=1;whiteSpace=wrap;connectable=0;overflow=hidden;top=0;left=0;bottom=0;right=0;pointerEvents=1;fontSize=16;fillColor=none;strokeColor=#BAC8D3;strokeWidth=2;rounded=0;" vertex="1" parent="bPTVYF2F344Qg-RBrNcO-424">
          <mxGeometry x="330" width="30" height="20" as="geometry">
            <mxRectangle width="30" height="20" as="alternateBounds" />
          </mxGeometry>
        </mxCell>
        <mxCell id="bPTVYF2F344Qg-RBrNcO-427" value="int, null" style="shape=partialRectangle;html=1;whiteSpace=wrap;connectable=0;overflow=hidden;top=0;left=0;bottom=0;right=0;pointerEvents=1;fontSize=16;fillColor=none;strokeColor=#BAC8D3;strokeWidth=2;align=left;verticalAlign=bottom;spacingTop=-2;rounded=0;" vertex="1" parent="bPTVYF2F344Qg-RBrNcO-424">
          <mxGeometry x="360" width="190" height="20" as="geometry">
            <mxRectangle width="190" height="20" as="alternateBounds" />
          </mxGeometry>
        </mxCell>
        <mxCell id="bPTVYF2F344Qg-RBrNcO-428" style="shape=tableRow;horizontal=0;startSize=0;swimlaneHead=0;swimlaneBody=0;top=0;left=0;bottom=0;right=0;collapsible=0;dropTarget=0;points=[[0,0.5],[1,0.5]];portConstraint=eastwest;fontSize=16;fillColor=none;strokeColor=#BAC8D3;strokeWidth=2;rounded=0;" vertex="1" parent="bPTVYF2F344Qg-RBrNcO-415">
          <mxGeometry y="80" width="550" height="20" as="geometry" />
        </mxCell>
        <mxCell id="bPTVYF2F344Qg-RBrNcO-429" value="Conformidad_salarial_actual" style="shape=partialRectangle;html=1;whiteSpace=wrap;connectable=0;overflow=hidden;top=0;left=0;bottom=0;right=0;pointerEvents=1;fontSize=16;fillColor=none;strokeColor=#BAC8D3;strokeWidth=2;align=left;verticalAlign=bottom;spacingTop=-2;rounded=0;" vertex="1" parent="bPTVYF2F344Qg-RBrNcO-428">
          <mxGeometry width="330" height="20" as="geometry">
            <mxRectangle width="330" height="20" as="alternateBounds" />
          </mxGeometry>
        </mxCell>
        <mxCell id="bPTVYF2F344Qg-RBrNcO-430" style="shape=partialRectangle;html=1;whiteSpace=wrap;connectable=0;overflow=hidden;top=0;left=0;bottom=0;right=0;pointerEvents=1;fontSize=16;fillColor=none;strokeColor=#BAC8D3;strokeWidth=2;rounded=0;" vertex="1" parent="bPTVYF2F344Qg-RBrNcO-428">
          <mxGeometry x="330" width="30" height="20" as="geometry">
            <mxRectangle width="30" height="20" as="alternateBounds" />
          </mxGeometry>
        </mxCell>
        <mxCell id="bPTVYF2F344Qg-RBrNcO-431" value="int, null" style="shape=partialRectangle;html=1;whiteSpace=wrap;connectable=0;overflow=hidden;top=0;left=0;bottom=0;right=0;pointerEvents=1;fontSize=16;fillColor=none;strokeColor=#BAC8D3;strokeWidth=2;align=left;verticalAlign=bottom;spacingTop=-2;rounded=0;" vertex="1" parent="bPTVYF2F344Qg-RBrNcO-428">
          <mxGeometry x="360" width="190" height="20" as="geometry">
            <mxRectangle width="190" height="20" as="alternateBounds" />
          </mxGeometry>
        </mxCell>
        <mxCell id="bPTVYF2F344Qg-RBrNcO-432" style="shape=tableRow;horizontal=0;startSize=0;swimlaneHead=0;swimlaneBody=0;top=0;left=0;bottom=0;right=0;collapsible=0;dropTarget=0;points=[[0,0.5],[1,0.5]];portConstraint=eastwest;fontSize=16;fillColor=none;strokeColor=#BAC8D3;strokeWidth=2;rounded=0;" vertex="1" parent="bPTVYF2F344Qg-RBrNcO-415">
          <mxGeometry y="100" width="550" height="20" as="geometry" />
        </mxCell>
        <mxCell id="bPTVYF2F344Qg-RBrNcO-433" value="Cantidad_de_personas_en_empresa" style="shape=partialRectangle;html=1;whiteSpace=wrap;connectable=0;overflow=hidden;top=0;left=0;bottom=0;right=0;pointerEvents=1;fontSize=16;fillColor=none;strokeColor=#BAC8D3;strokeWidth=2;align=left;verticalAlign=bottom;spacingTop=-2;rounded=0;" vertex="1" parent="bPTVYF2F344Qg-RBrNcO-432">
          <mxGeometry width="330" height="20" as="geometry">
            <mxRectangle width="330" height="20" as="alternateBounds" />
          </mxGeometry>
        </mxCell>
        <mxCell id="bPTVYF2F344Qg-RBrNcO-434" style="shape=partialRectangle;html=1;whiteSpace=wrap;connectable=0;overflow=hidden;top=0;left=0;bottom=0;right=0;pointerEvents=1;fontSize=16;fillColor=none;strokeColor=#BAC8D3;strokeWidth=2;rounded=0;" vertex="1" parent="bPTVYF2F344Qg-RBrNcO-432">
          <mxGeometry x="330" width="30" height="20" as="geometry">
            <mxRectangle width="30" height="20" as="alternateBounds" />
          </mxGeometry>
        </mxCell>
        <mxCell id="bPTVYF2F344Qg-RBrNcO-435" value="nvarchar(100), null" style="shape=partialRectangle;html=1;whiteSpace=wrap;connectable=0;overflow=hidden;top=0;left=0;bottom=0;right=0;pointerEvents=1;fontSize=16;fillColor=none;strokeColor=#BAC8D3;strokeWidth=2;align=left;verticalAlign=bottom;spacingTop=-2;rounded=0;" vertex="1" parent="bPTVYF2F344Qg-RBrNcO-432">
          <mxGeometry x="360" width="190" height="20" as="geometry">
            <mxRectangle width="190" height="20" as="alternateBounds" />
          </mxGeometry>
        </mxCell>
        <mxCell id="bPTVYF2F344Qg-RBrNcO-436" style="shape=tableRow;horizontal=0;startSize=0;swimlaneHead=0;swimlaneBody=0;top=0;left=0;bottom=0;right=0;collapsible=0;dropTarget=0;points=[[0,0.5],[1,0.5]];portConstraint=eastwest;fontSize=16;fillColor=none;strokeColor=#BAC8D3;strokeWidth=2;align=left;rounded=0;" vertex="1" parent="bPTVYF2F344Qg-RBrNcO-415">
          <mxGeometry y="120" width="550" height="20" as="geometry" />
        </mxCell>
        <mxCell id="bPTVYF2F344Qg-RBrNcO-437" value="RecomendÃ¡s_la_empresa" style="shape=partialRectangle;html=1;whiteSpace=wrap;connectable=0;overflow=hidden;top=0;left=0;bottom=0;right=0;pointerEvents=1;fontSize=16;fillColor=none;strokeColor=#BAC8D3;strokeWidth=2;align=left;verticalAlign=bottom;spacingTop=-2;rounded=0;" vertex="1" parent="bPTVYF2F344Qg-RBrNcO-436">
          <mxGeometry width="330" height="20" as="geometry">
            <mxRectangle width="330" height="20" as="alternateBounds" />
          </mxGeometry>
        </mxCell>
        <mxCell id="bPTVYF2F344Qg-RBrNcO-438" style="shape=partialRectangle;html=1;whiteSpace=wrap;connectable=0;overflow=hidden;top=0;left=0;bottom=0;right=0;pointerEvents=1;fontSize=16;fillColor=none;strokeColor=#BAC8D3;strokeWidth=2;rounded=0;" vertex="1" parent="bPTVYF2F344Qg-RBrNcO-436">
          <mxGeometry x="330" width="30" height="20" as="geometry">
            <mxRectangle width="30" height="20" as="alternateBounds" />
          </mxGeometry>
        </mxCell>
        <mxCell id="bPTVYF2F344Qg-RBrNcO-439" value="int, null" style="shape=partialRectangle;html=1;whiteSpace=wrap;connectable=0;overflow=hidden;top=0;left=0;bottom=0;right=0;pointerEvents=1;fontSize=16;fillColor=none;strokeColor=#BAC8D3;strokeWidth=2;align=left;verticalAlign=bottom;spacingTop=-2;rounded=0;" vertex="1" parent="bPTVYF2F344Qg-RBrNcO-436">
          <mxGeometry x="360" width="190" height="20" as="geometry">
            <mxRectangle width="190" height="20" as="alternateBounds" />
          </mxGeometry>
        </mxCell>
        <mxCell id="bPTVYF2F344Qg-RBrNcO-513" value="" style="fontSize=12;html=1;endArrow=ERoneToMany;exitX=1;exitY=0.5;exitDx=0;exitDy=0;exitPerimeter=0;" edge="1" parent="1" source="bPTVYF2F344Qg-RBrNcO-299">
          <mxGeometry width="100" height="100" relative="1" as="geometry">
            <mxPoint x="175" y="-330" as="sourcePoint" />
            <mxPoint x="275" y="-340" as="targetPoint" />
          </mxGeometry>
        </mxCell>
        <mxCell id="bPTVYF2F344Qg-RBrNcO-514" value="" style="fontSize=12;html=1;endArrow=ERoneToMany;entryX=0;entryY=0.5;entryDx=0;entryDy=0;exitX=1;exitY=0.5;exitDx=0;exitDy=0;" edge="1" parent="1" source="bPTVYF2F344Qg-RBrNcO-290" target="bPTVYF2F344Qg-RBrNcO-89">
          <mxGeometry width="100" height="100" relative="1" as="geometry">
            <mxPoint x="190" y="-250" as="sourcePoint" />
            <mxPoint x="270" y="-320" as="targetPoint" />
          </mxGeometry>
        </mxCell>
        <mxCell id="bPTVYF2F344Qg-RBrNcO-515" value="ESTUDIOS" style="shape=table;startSize=20;container=1;collapsible=0;childLayout=tableLayout;fontSize=16;fillColor=#bac8d3;strokeColor=#BAC8D3;fontStyle=1;strokeWidth=2;verticalAlign=middle;spacing=2;horizontal=1;spacingTop=0;spacingRight=0;rounded=0;" vertex="1" parent="1">
          <mxGeometry x="700" y="-700" width="410" height="120" as="geometry" />
        </mxCell>
        <mxCell id="bPTVYF2F344Qg-RBrNcO-516" value="" style="shape=tableRow;horizontal=0;startSize=0;swimlaneHead=0;swimlaneBody=0;top=0;left=0;bottom=0;right=0;collapsible=0;dropTarget=0;points=[[0,0.5],[1,0.5]];portConstraint=eastwest;fontSize=16;fillColor=none;strokeColor=#BAC8D3;strokeWidth=2;rounded=0;" vertex="1" parent="bPTVYF2F344Qg-RBrNcO-515">
          <mxGeometry y="20" width="410" height="20" as="geometry" />
        </mxCell>
        <mxCell id="bPTVYF2F344Qg-RBrNcO-517" value="ID_empleado" style="shape=partialRectangle;html=1;whiteSpace=wrap;connectable=0;overflow=hidden;top=0;left=0;bottom=0;right=0;pointerEvents=1;fontSize=16;fillColor=none;strokeColor=#BAC8D3;strokeWidth=2;align=left;verticalAlign=bottom;spacingTop=-2;rounded=0;" vertex="1" parent="bPTVYF2F344Qg-RBrNcO-516">
          <mxGeometry width="230" height="20" as="geometry">
            <mxRectangle width="230" height="20" as="alternateBounds" />
          </mxGeometry>
        </mxCell>
        <mxCell id="bPTVYF2F344Qg-RBrNcO-518" value="FK" style="shape=partialRectangle;html=1;whiteSpace=wrap;connectable=0;overflow=hidden;top=0;left=0;bottom=0;right=0;pointerEvents=1;fontSize=16;fillColor=none;strokeColor=#BAC8D3;strokeWidth=2;verticalAlign=bottom;spacingTop=-1;rounded=0;" vertex="1" parent="bPTVYF2F344Qg-RBrNcO-516">
          <mxGeometry x="230" width="40" height="20" as="geometry">
            <mxRectangle width="40" height="20" as="alternateBounds" />
          </mxGeometry>
        </mxCell>
        <mxCell id="bPTVYF2F344Qg-RBrNcO-519" value="int, null" style="shape=partialRectangle;html=1;whiteSpace=wrap;connectable=0;overflow=hidden;top=0;left=0;bottom=0;right=0;pointerEvents=1;fontSize=16;fillColor=none;strokeColor=#BAC8D3;strokeWidth=2;align=left;spacingTop=-2;rounded=0;" vertex="1" parent="bPTVYF2F344Qg-RBrNcO-516">
          <mxGeometry x="270" width="140" height="20" as="geometry">
            <mxRectangle width="140" height="20" as="alternateBounds" />
          </mxGeometry>
        </mxCell>
        <mxCell id="bPTVYF2F344Qg-RBrNcO-520" value="" style="shape=tableRow;horizontal=0;startSize=0;swimlaneHead=0;swimlaneBody=0;top=0;left=0;bottom=0;right=0;collapsible=0;dropTarget=0;points=[[0,0.5],[1,0.5]];portConstraint=eastwest;fontSize=16;fillColor=none;strokeColor=#BAC8D3;strokeWidth=2;rounded=0;" vertex="1" parent="bPTVYF2F344Qg-RBrNcO-515">
          <mxGeometry y="40" width="410" height="20" as="geometry" />
        </mxCell>
        <mxCell id="bPTVYF2F344Qg-RBrNcO-521" value="Nivel_de_estudios" style="shape=partialRectangle;html=1;whiteSpace=wrap;connectable=0;overflow=hidden;top=0;left=0;bottom=0;right=0;pointerEvents=1;fontSize=16;fillColor=none;strokeColor=#BAC8D3;strokeWidth=2;align=left;verticalAlign=bottom;spacingTop=-2;rounded=0;" vertex="1" parent="bPTVYF2F344Qg-RBrNcO-520">
          <mxGeometry width="230" height="20" as="geometry">
            <mxRectangle width="230" height="20" as="alternateBounds" />
          </mxGeometry>
        </mxCell>
        <mxCell id="bPTVYF2F344Qg-RBrNcO-522" value="" style="shape=partialRectangle;html=1;whiteSpace=wrap;connectable=0;overflow=hidden;top=0;left=0;bottom=0;right=0;pointerEvents=1;fontSize=16;fillColor=none;strokeColor=#BAC8D3;strokeWidth=2;rounded=0;" vertex="1" parent="bPTVYF2F344Qg-RBrNcO-520">
          <mxGeometry x="230" width="40" height="20" as="geometry">
            <mxRectangle width="40" height="20" as="alternateBounds" />
          </mxGeometry>
        </mxCell>
        <mxCell id="bPTVYF2F344Qg-RBrNcO-523" value="varchar(50), null" style="shape=partialRectangle;html=1;whiteSpace=wrap;connectable=0;overflow=hidden;top=0;left=0;bottom=0;right=0;pointerEvents=1;fontSize=16;fillColor=none;strokeColor=#BAC8D3;strokeWidth=2;align=left;verticalAlign=bottom;spacingTop=-2;rounded=0;" vertex="1" parent="bPTVYF2F344Qg-RBrNcO-520">
          <mxGeometry x="270" width="140" height="20" as="geometry">
            <mxRectangle width="140" height="20" as="alternateBounds" />
          </mxGeometry>
        </mxCell>
        <mxCell id="bPTVYF2F344Qg-RBrNcO-524" value="" style="shape=tableRow;horizontal=0;startSize=0;swimlaneHead=0;swimlaneBody=0;top=0;left=0;bottom=0;right=0;collapsible=0;dropTarget=0;points=[[0,0.5],[1,0.5]];portConstraint=eastwest;fontSize=16;fillColor=none;strokeColor=#BAC8D3;strokeWidth=2;rounded=0;" vertex="1" parent="bPTVYF2F344Qg-RBrNcO-515">
          <mxGeometry y="60" width="410" height="20" as="geometry" />
        </mxCell>
        <mxCell id="bPTVYF2F344Qg-RBrNcO-525" value="Estado" style="shape=partialRectangle;html=1;whiteSpace=wrap;connectable=0;overflow=hidden;top=0;left=0;bottom=0;right=0;pointerEvents=1;fontSize=16;fillColor=none;strokeColor=#BAC8D3;strokeWidth=2;align=left;verticalAlign=bottom;spacingTop=-2;rounded=0;" vertex="1" parent="bPTVYF2F344Qg-RBrNcO-524">
          <mxGeometry width="230" height="20" as="geometry">
            <mxRectangle width="230" height="20" as="alternateBounds" />
          </mxGeometry>
        </mxCell>
        <mxCell id="bPTVYF2F344Qg-RBrNcO-526" value="" style="shape=partialRectangle;html=1;whiteSpace=wrap;connectable=0;overflow=hidden;top=0;left=0;bottom=0;right=0;pointerEvents=1;fontSize=16;fillColor=none;strokeColor=#BAC8D3;strokeWidth=2;rounded=0;" vertex="1" parent="bPTVYF2F344Qg-RBrNcO-524">
          <mxGeometry x="230" width="40" height="20" as="geometry">
            <mxRectangle width="40" height="20" as="alternateBounds" />
          </mxGeometry>
        </mxCell>
        <mxCell id="bPTVYF2F344Qg-RBrNcO-527" value="varchar(25), null" style="shape=partialRectangle;html=1;whiteSpace=wrap;connectable=0;overflow=hidden;top=0;left=0;bottom=0;right=0;pointerEvents=1;fontSize=16;fillColor=none;strokeColor=#BAC8D3;strokeWidth=2;align=left;verticalAlign=bottom;spacingTop=-2;rounded=0;" vertex="1" parent="bPTVYF2F344Qg-RBrNcO-524">
          <mxGeometry x="270" width="140" height="20" as="geometry">
            <mxRectangle width="140" height="20" as="alternateBounds" />
          </mxGeometry>
        </mxCell>
        <mxCell id="bPTVYF2F344Qg-RBrNcO-528" style="shape=tableRow;horizontal=0;startSize=0;swimlaneHead=0;swimlaneBody=0;top=0;left=0;bottom=0;right=0;collapsible=0;dropTarget=0;points=[[0,0.5],[1,0.5]];portConstraint=eastwest;fontSize=16;fillColor=none;strokeColor=#BAC8D3;strokeWidth=2;rounded=0;" vertex="1" parent="bPTVYF2F344Qg-RBrNcO-515">
          <mxGeometry y="80" width="410" height="20" as="geometry" />
        </mxCell>
        <mxCell id="bPTVYF2F344Qg-RBrNcO-529" value="Carrera" style="shape=partialRectangle;html=1;whiteSpace=wrap;connectable=0;overflow=hidden;top=0;left=0;bottom=0;right=0;pointerEvents=1;fontSize=16;fillColor=none;strokeColor=#BAC8D3;strokeWidth=2;align=left;verticalAlign=bottom;spacingTop=-2;rounded=0;" vertex="1" parent="bPTVYF2F344Qg-RBrNcO-528">
          <mxGeometry width="230" height="20" as="geometry">
            <mxRectangle width="230" height="20" as="alternateBounds" />
          </mxGeometry>
        </mxCell>
        <mxCell id="bPTVYF2F344Qg-RBrNcO-530" style="shape=partialRectangle;html=1;whiteSpace=wrap;connectable=0;overflow=hidden;top=0;left=0;bottom=0;right=0;pointerEvents=1;fontSize=16;fillColor=none;strokeColor=#BAC8D3;strokeWidth=2;rounded=0;" vertex="1" parent="bPTVYF2F344Qg-RBrNcO-528">
          <mxGeometry x="230" width="40" height="20" as="geometry">
            <mxRectangle width="40" height="20" as="alternateBounds" />
          </mxGeometry>
        </mxCell>
        <mxCell id="bPTVYF2F344Qg-RBrNcO-531" value="varchar(250), null" style="shape=partialRectangle;html=1;whiteSpace=wrap;connectable=0;overflow=hidden;top=0;left=0;bottom=0;right=0;pointerEvents=1;fontSize=16;fillColor=none;strokeColor=#BAC8D3;strokeWidth=2;align=left;verticalAlign=bottom;spacingTop=-2;rounded=0;" vertex="1" parent="bPTVYF2F344Qg-RBrNcO-528">
          <mxGeometry x="270" width="140" height="20" as="geometry">
            <mxRectangle width="140" height="20" as="alternateBounds" />
          </mxGeometry>
        </mxCell>
        <mxCell id="bPTVYF2F344Qg-RBrNcO-532" style="shape=tableRow;horizontal=0;startSize=0;swimlaneHead=0;swimlaneBody=0;top=0;left=0;bottom=0;right=0;collapsible=0;dropTarget=0;points=[[0,0.5],[1,0.5]];portConstraint=eastwest;fontSize=16;fillColor=none;strokeColor=#BAC8D3;strokeWidth=2;rounded=0;" vertex="1" parent="bPTVYF2F344Qg-RBrNcO-515">
          <mxGeometry y="100" width="410" height="20" as="geometry" />
        </mxCell>
        <mxCell id="bPTVYF2F344Qg-RBrNcO-533" value="Universidad" style="shape=partialRectangle;html=1;whiteSpace=wrap;connectable=0;overflow=hidden;top=0;left=0;bottom=0;right=0;pointerEvents=1;fontSize=16;fillColor=none;strokeColor=#BAC8D3;strokeWidth=2;align=left;verticalAlign=bottom;spacingTop=-2;rounded=0;" vertex="1" parent="bPTVYF2F344Qg-RBrNcO-532">
          <mxGeometry width="230" height="20" as="geometry">
            <mxRectangle width="230" height="20" as="alternateBounds" />
          </mxGeometry>
        </mxCell>
        <mxCell id="bPTVYF2F344Qg-RBrNcO-534" style="shape=partialRectangle;html=1;whiteSpace=wrap;connectable=0;overflow=hidden;top=0;left=0;bottom=0;right=0;pointerEvents=1;fontSize=16;fillColor=none;strokeColor=#BAC8D3;strokeWidth=2;rounded=0;" vertex="1" parent="bPTVYF2F344Qg-RBrNcO-532">
          <mxGeometry x="230" width="40" height="20" as="geometry">
            <mxRectangle width="40" height="20" as="alternateBounds" />
          </mxGeometry>
        </mxCell>
        <mxCell id="bPTVYF2F344Qg-RBrNcO-535" value="varchar(250), null" style="shape=partialRectangle;html=1;whiteSpace=wrap;connectable=0;overflow=hidden;top=0;left=0;bottom=0;right=0;pointerEvents=1;fontSize=16;fillColor=none;strokeColor=#BAC8D3;strokeWidth=2;align=left;verticalAlign=bottom;spacingTop=-2;rounded=0;" vertex="1" parent="bPTVYF2F344Qg-RBrNcO-532">
          <mxGeometry x="270" width="140" height="20" as="geometry">
            <mxRectangle width="140" height="20" as="alternateBounds" />
          </mxGeometry>
        </mxCell>
        <mxCell id="bPTVYF2F344Qg-RBrNcO-537" style="edgeStyle=entityRelationEdgeStyle;orthogonalLoop=1;jettySize=auto;html=1;endArrow=ERmandOne;endFill=0;startArrow=ERmandOne;startFill=0;entryX=0;entryY=0.5;entryDx=0;entryDy=0;" edge="1" parent="1" target="bPTVYF2F344Qg-RBrNcO-12">
          <mxGeometry relative="1" as="geometry">
            <mxPoint x="270" y="-480" as="targetPoint" />
            <mxPoint x="110" y="-530" as="sourcePoint" />
          </mxGeometry>
        </mxCell>
        <mxCell id="bPTVYF2F344Qg-RBrNcO-538" style="orthogonalLoop=1;jettySize=auto;html=1;exitX=1;exitY=0.5;exitDx=0;exitDy=0;endArrow=ERmandOne;endFill=0;startArrow=ERmandOne;startFill=0;entryX=0.006;entryY=-0.05;entryDx=0;entryDy=0;entryPerimeter=0;" edge="1" parent="1" source="bPTVYF2F344Qg-RBrNcO-308" target="bPTVYF2F344Qg-RBrNcO-12">
          <mxGeometry relative="1" as="geometry">
            <mxPoint x="270" y="-490" as="targetPoint" />
          </mxGeometry>
        </mxCell>
        <mxCell id="bPTVYF2F344Qg-RBrNcO-541" style="orthogonalLoop=1;jettySize=auto;html=1;exitX=0;exitY=0.5;exitDx=0;exitDy=0;startArrow=ERmandOne;startFill=0;endArrow=ERmandOne;endFill=0;entryX=0.994;entryY=0.105;entryDx=0;entryDy=0;entryPerimeter=0;" edge="1" parent="1" source="bPTVYF2F344Qg-RBrNcO-516" target="bPTVYF2F344Qg-RBrNcO-394">
          <mxGeometry relative="1" as="geometry">
            <mxPoint x="600" y="-500" as="targetPoint" />
          </mxGeometry>
        </mxCell>
      </root>
    </mxGraphModel>
  </diagram>
</mxfile>
